<svg width="68" height="99" viewBox="0 0 68 99" fill="none" xmlns="http://www.w3.org/2000/svg">
<g filter="url(#filter0_d)">
<rect x="4" y="7.19995" width="60" height="60" rx="2.4" fill="#2E2E2E"/>
</g>
<g filter="url(#filter1_d)">
<path d="M41.95 48.2875V41.35C41.95 38.35 42.0375 35.625 42.2125 33.175C42.4125 30.7 42.8375 28.4125 43.4875 26.3125C41.5125 26.0125 39.4875 25.6625 37.4125 25.2625C35.3375 24.8375 33.3 24.4375 31.3 24.0625C29.325 23.6875 27.4375 23.375 25.6375 23.125C23.8625 22.85 22.2625 22.7125 20.8375 22.7125C18.9125 22.7125 17.3125 22.875 16.0375 23.2C14.7625 23.5 13.7375 23.9125 12.9625 24.4375C12.1875 24.9625 11.6375 25.575 11.3125 26.275C11.0125 26.95 10.8625 27.675 10.8625 28.45C10.8625 29.225 11.0375 29.9375 11.3875 30.5875C11.7625 31.2375 12.2875 31.8125 12.9625 32.3125C13.6375 32.7875 14.4375 33.1625 15.3625 33.4375C16.3125 33.7125 17.3625 33.85 18.5125 33.85C19.7875 33.85 20.9125 33.7125 21.8875 33.4375C22.8875 33.1375 23.7375 32.8125 24.4375 32.4625C25.2625 32.0625 25.9875 31.6 26.6125 31.075L27.3625 32.6875C26.5875 33.2625 25.7375 33.775 24.8125 34.225C24.0125 34.625 23.075 34.9875 22 35.3125C20.95 35.6125 19.7875 35.7625 18.5125 35.7625C16.8375 35.7625 15.35 35.5375 14.05 35.0875C12.775 34.6375 11.7 34.0375 10.825 33.2875C9.94995 32.5125 9.28745 31.6125 8.83745 30.5875C8.38745 29.5625 8.16245 28.475 8.16245 27.325C8.16245 26.1 8.37495 24.9125 8.79995 23.7625C9.19995 22.6125 9.88745 21.5875 10.8625 20.6875C11.8125 19.7875 13.075 19.075 14.65 18.55C16.225 18 18.1625 17.725 20.4625 17.725C22.5875 17.725 24.7125 17.9 26.8375 18.25C28.9875 18.575 31.1 18.9875 33.175 19.4875C35.275 19.9625 37.3125 20.4875 39.2875 21.0625C41.2875 21.6125 43.2 22.1125 45.025 22.5625C46.1 20.5875 47.4375 19.0125 49.0375 17.8375C50.6375 16.6375 52.375 16.0375 54.25 16.0375C55.05 16.0375 55.7625 16.175 56.3875 16.45C57.0125 16.7 57.5375 17.0375 57.9625 17.4625C58.3875 17.8875 58.7 18.3875 58.9 18.9625C59.125 19.5125 59.2375 20.1 59.2375 20.725C59.2375 21.775 58.9875 22.6875 58.4875 23.4625C58.0125 24.2125 57.35 24.85 56.5 25.375C55.65 25.875 54.65 26.25 53.5 26.5C52.35 26.725 51.1125 26.8375 49.7875 26.8375C49.4875 26.8375 49.175 26.8375 48.85 26.8375C48.55 26.8375 48.25 26.8125 47.95 26.7625C47.75 28.0125 47.5875 29.4125 47.4625 30.9625C47.3625 32.4875 47.3125 34.2125 47.3125 36.1375V48.2875H52.3375L51.55 50.575H47.3125V59.8C47.3125 61.9 47.2875 63.7375 47.2375 65.3125C47.1875 66.8625 47.05 68.25 46.825 69.475C46.6 70.675 46.2625 71.7625 45.8125 72.7375C45.3625 73.6875 44.7375 74.625 43.9375 75.55C42.5625 77.125 40.65 78.4125 38.2 79.4125C35.75 80.4125 32.775 80.9125 29.275 80.9125C27.125 80.9125 25.075 80.6125 23.125 80.0125C21.175 79.4125 19.4625 78.575 17.9875 77.5C16.5125 76.425 15.3375 75.1375 14.4625 73.6375C13.5875 72.1375 13.15 70.475 13.15 68.65C13.15 67.3 13.3625 66.0875 13.7875 65.0125C14.2375 63.9375 14.8125 62.9875 15.5125 62.1625C16.2125 61.3125 16.975 60.5875 17.8 59.9875C18.65 59.3875 19.475 58.8875 20.275 58.4875C21.075 58.0875 21.8 57.775 22.45 57.55C23.1 57.325 23.5875 57.175 23.9125 57.1L24.6625 58.6375C24.0875 58.9375 23.4375 59.35 22.7125 59.875C22.0125 60.375 21.35 61.025 20.725 61.825C20.1 62.6 19.575 63.55 19.15 64.675C18.725 65.8 18.5125 67.125 18.5125 68.65C18.5125 70.275 18.7875 71.7375 19.3375 73.0375C19.8875 74.3125 20.65 75.4 21.625 76.3C22.625 77.175 23.8 77.85 25.15 78.325C26.525 78.775 28.025 79 29.65 79C31.475 79 33.1375 78.75 34.6375 78.25C36.1625 77.75 37.4625 76.9125 38.5375 75.7375C39.6125 74.5625 40.45 73 41.05 71.05C41.65 69.1 41.95 66.675 41.95 63.775V50.575H34.675L35.425 48.2875H41.95ZM54.25 18.1C53.125 18.1 52.0875 18.5125 51.1375 19.3375C50.1875 20.1375 49.4 21.5125 48.775 23.4625C49.55 23.5875 50.3 23.6875 51.025 23.7625C51.75 23.8375 52.4375 23.875 53.0875 23.875C53.7625 23.875 54.3375 23.7875 54.8125 23.6125C55.3125 23.4125 55.7125 23.1625 56.0125 22.8625C56.3125 22.5625 56.5375 22.225 56.6875 21.85C56.8375 21.475 56.9125 21.1 56.9125 20.725C56.9125 20 56.6625 19.3875 56.1625 18.8875C55.6625 18.3625 55.025 18.1 54.25 18.1Z" fill="white"/>
<path d="M41.95 48.2875V49.2875H42.95V48.2875H41.95ZM42.2125 33.175L41.2157 33.0944L41.215 33.1038L42.2125 33.175ZM43.4875 26.3125L44.4427 26.6082L44.7863 25.4983L43.6376 25.3238L43.4875 26.3125ZM37.4125 25.2625L37.2118 26.2422L37.2232 26.2444L37.4125 25.2625ZM31.3 24.0625L31.1134 25.0449L31.1157 25.0454L31.3 24.0625ZM25.6375 23.125L25.4843 24.1132L25.4921 24.1144L25.4999 24.1155L25.6375 23.125ZM16.0375 23.2L16.2665 24.1734L16.2755 24.1713L16.2845 24.169L16.0375 23.2ZM12.9625 24.4375L12.4016 23.6096L12.9625 24.4375ZM11.3125 26.275L10.4054 25.8539L10.402 25.8613L10.3986 25.8689L11.3125 26.275ZM11.3875 30.5875L10.507 31.0616L10.5139 31.0745L10.5213 31.0872L11.3875 30.5875ZM12.9625 32.3125L12.3672 33.1161L12.377 33.1233L12.387 33.1303L12.9625 32.3125ZM15.3625 33.4375L15.0775 34.3961L15.0844 34.3981L15.3625 33.4375ZM21.8875 33.4375L22.1589 34.3999L22.1669 34.3977L22.1748 34.3953L21.8875 33.4375ZM24.4375 32.4625L24.0011 31.5626L23.9902 31.5681L24.4375 32.4625ZM26.6125 31.075L27.5192 30.6533L26.9687 29.4698L25.9693 30.3093L26.6125 31.075ZM27.3625 32.6875L27.9583 33.4906L28.6129 33.0049L28.2692 32.2658L27.3625 32.6875ZM24.8125 34.225L24.375 33.3257L24.3652 33.3306L24.8125 34.225ZM22 35.3125L22.2747 36.274L22.282 36.2719L22.2893 36.2697L22 35.3125ZM14.05 35.0875L13.7171 36.0305L13.7228 36.0325L14.05 35.0875ZM10.825 33.2875L10.1619 34.0361L10.168 34.0415L10.1742 34.0468L10.825 33.2875ZM8.79995 23.7625L9.73795 24.1091L9.74128 24.1001L9.74445 24.091L8.79995 23.7625ZM10.8625 20.6875L11.5408 21.4224L11.5502 21.4135L10.8625 20.6875ZM14.65 18.55L14.9662 19.4987L14.9729 19.4964L14.9796 19.4941L14.65 18.55ZM26.8375 18.25L26.6749 19.2368L26.688 19.2388L26.8375 18.25ZM33.175 19.4875L32.9407 20.4598L32.9543 20.4629L33.175 19.4875ZM39.2875 21.0625L39.0079 22.0226L39.0151 22.0247L39.0223 22.0267L39.2875 21.0625ZM45.025 22.5625L44.7855 23.5334L45.5345 23.7181L45.9033 23.0406L45.025 22.5625ZM49.0375 17.8375L49.6294 18.6435L49.6375 18.6375L49.0375 17.8375ZM56.3875 16.45L55.9847 17.3653L56.0003 17.3722L56.0161 17.3785L56.3875 16.45ZM58.9 18.9625L57.9555 19.291L57.9643 19.3163L57.9744 19.3411L58.9 18.9625ZM58.4875 23.4625L57.6471 22.9204L57.6426 22.9274L58.4875 23.4625ZM56.5 25.375L57.007 26.2369L57.0163 26.2315L57.0254 26.2258L56.5 25.375ZM53.5 26.5L53.692 27.4814L53.7022 27.4794L53.7124 27.4772L53.5 26.5ZM47.95 26.7625L48.1144 25.7761L47.1215 25.6106L46.9625 26.6045L47.95 26.7625ZM47.4625 30.9625L46.4657 30.8821L46.4651 30.8896L46.4646 30.8971L47.4625 30.9625ZM47.3125 48.2875H46.3125V49.2875H47.3125V48.2875ZM52.3375 48.2875L53.283 48.613L53.7393 47.2875H52.3375V48.2875ZM51.55 50.575V51.575H52.2633L52.4955 50.9005L51.55 50.575ZM47.3125 50.575V49.575H46.3125V50.575H47.3125ZM47.2375 65.3125L48.2369 65.3447L48.2369 65.3442L47.2375 65.3125ZM46.825 69.475L47.8078 69.6593L47.8085 69.6557L46.825 69.475ZM45.8125 72.7375L46.7162 73.1656L46.7204 73.1566L45.8125 72.7375ZM43.9375 75.55L44.6908 76.2077L44.6938 76.2042L43.9375 75.55ZM13.7875 65.0125L12.865 64.6264L12.8612 64.6356L12.8575 64.6448L13.7875 65.0125ZM15.5125 62.1625L16.275 62.8095L16.2797 62.8039L16.2844 62.7982L15.5125 62.1625ZM17.8 59.9875L17.2232 59.1704L17.2118 59.1788L17.8 59.9875ZM20.275 58.4875L20.7222 59.3819L20.275 58.4875ZM23.9125 57.1L24.8112 56.6616L24.4625 55.9468L23.6876 56.1256L23.9125 57.1ZM24.6625 58.6375L25.125 59.5241L25.9879 59.0739L25.5612 58.1991L24.6625 58.6375ZM22.7125 59.875L23.2937 60.6887L23.299 60.6849L22.7125 59.875ZM20.725 61.825L21.5034 62.4528L21.5082 62.4467L21.513 62.4406L20.725 61.825ZM19.3375 73.0375L18.4165 73.4271L18.4192 73.4336L19.3375 73.0375ZM21.625 76.3L20.9467 77.0348L20.9564 77.0438L20.9664 77.0526L21.625 76.3ZM25.15 78.325L24.818 79.2683L24.8284 79.272L24.8389 79.2754L25.15 78.325ZM34.6375 78.25L34.3259 77.2998L34.3212 77.3013L34.6375 78.25ZM38.5375 75.7375L37.7996 75.0625L38.5375 75.7375ZM41.95 50.575H42.95V49.575H41.95V50.575ZM34.675 50.575L33.7247 50.2634L33.2947 51.575H34.675V50.575ZM35.425 48.2875V47.2875H34.7004L34.4747 47.9759L35.425 48.2875ZM51.1375 19.3375L51.7816 20.1024L51.7874 20.0975L51.7931 20.0925L51.1375 19.3375ZM48.775 23.4625L47.8227 23.1573L47.4678 24.2646L48.6157 24.4497L48.775 23.4625ZM54.8125 23.6125L55.1582 24.5508L55.1711 24.5461L55.1838 24.541L54.8125 23.6125ZM56.1625 18.8875L55.4383 19.5772L55.4467 19.586L55.4553 19.5946L56.1625 18.8875ZM42.95 48.2875V41.35H40.95V48.2875H42.95ZM42.95 41.35C42.95 38.3688 43.0369 35.668 43.2099 33.2462L41.215 33.1038C41.038 35.582 40.95 38.3312 40.95 41.35H42.95ZM43.2092 33.2555C43.404 30.8443 43.817 28.6299 44.4427 26.6082L42.5322 26.0168C41.8579 28.1951 41.4209 30.5557 41.2157 33.0945L43.2092 33.2555ZM43.6376 25.3238C41.6764 25.0259 39.6645 24.6782 37.6017 24.2806L37.2232 26.2444C39.3104 26.6468 41.3485 26.9991 43.3373 27.3012L43.6376 25.3238ZM37.6131 24.2828C35.5329 23.8568 33.4899 23.4557 31.4842 23.0796L31.1157 25.0454C33.11 25.4193 35.142 25.8182 37.2118 26.2422L37.6131 24.2828ZM31.4865 23.0801C29.4969 22.7023 27.593 22.387 25.775 22.1345L25.4999 24.1155C27.2819 24.363 29.153 24.6727 31.1134 25.0449L31.4865 23.0801ZM25.7906 22.1368C23.9773 21.8559 22.3249 21.7125 20.8375 21.7125V23.7125C22.2 23.7125 23.7476 23.8441 25.4843 24.1132L25.7906 22.1368ZM20.8375 21.7125C18.8638 21.7125 17.174 21.8783 15.7904 22.231L16.2845 24.169C17.4509 23.8717 18.9611 23.7125 20.8375 23.7125V21.7125ZM15.8084 22.2266C14.4587 22.5442 13.309 22.9949 12.4016 23.6096L13.5233 25.2654C14.1659 24.8301 15.0662 24.4558 16.2665 24.1734L15.8084 22.2266ZM12.4016 23.6096C11.5085 24.2146 10.8216 24.9576 10.4054 25.8539L12.2195 26.6961C12.4533 26.1924 12.8664 25.7104 13.5233 25.2654L12.4016 23.6096ZM10.3986 25.8689C10.039 26.678 9.86245 27.5421 9.86245 28.45H11.8625C11.8625 27.8079 11.9859 27.222 12.2263 26.6811L10.3986 25.8689ZM9.86245 28.45C9.86245 29.382 10.0746 30.2586 10.507 31.0616L12.2679 30.1134C12.0003 29.6164 11.8625 29.068 11.8625 28.45H9.86245ZM10.5213 31.0872C10.9725 31.8694 11.5952 32.5442 12.3672 33.1161L13.5577 31.5089C12.9797 31.0808 12.5524 30.6056 12.2536 30.0878L10.5213 31.0872ZM12.387 33.1303C13.1641 33.6772 14.0658 34.0953 15.0775 34.396L15.6474 32.479C14.8091 32.2297 14.1108 31.8978 13.5379 31.4947L12.387 33.1303ZM15.0844 34.3981C16.1381 34.7031 17.2833 34.85 18.5125 34.85V32.85C17.4416 32.85 16.4869 32.7219 15.6405 32.4769L15.0844 34.3981ZM18.5125 34.85C19.8567 34.85 21.0762 34.7053 22.1589 34.3999L21.616 32.475C20.7487 32.7197 19.7182 32.85 18.5125 32.85V34.85ZM22.1748 34.3953C23.2128 34.0839 24.1196 33.7395 24.8847 33.3569L23.9902 31.5681C23.3553 31.8855 22.5621 32.1911 21.6001 32.4797L22.1748 34.3953ZM24.8737 33.3623C25.764 32.9307 26.5603 32.4248 27.2556 31.8407L25.9693 30.3093C25.4146 30.7752 24.7609 31.1943 24.0012 31.5627L24.8737 33.3623ZM25.7057 31.4967L26.4557 33.1092L28.2692 32.2658L27.5192 30.6533L25.7057 31.4967ZM26.7666 31.8844C26.0445 32.4202 25.248 32.9011 24.375 33.3258L25.2499 35.1242C26.2269 34.6489 27.1305 34.1048 27.9583 33.4906L26.7666 31.8844ZM24.3652 33.3306C23.6269 33.6998 22.7443 34.0427 21.7106 34.3553L22.2893 36.2697C23.4056 35.9322 24.398 35.5502 25.2597 35.1194L24.3652 33.3306ZM21.7252 34.351C20.778 34.6216 19.7097 34.7625 18.5125 34.7625V36.7625C19.8652 36.7625 21.1219 36.6034 22.2747 36.274L21.7252 34.351ZM18.5125 34.7625C16.9254 34.7625 15.5518 34.5492 14.3771 34.1425L13.7228 36.0325C15.1481 36.5258 16.7495 36.7625 18.5125 36.7625V34.7625ZM14.3828 34.1445C13.2044 33.7286 12.2423 33.1853 11.4757 32.5282L10.1742 34.0468C11.1576 34.8897 12.3455 35.5464 13.7171 36.0305L14.3828 34.1445ZM11.488 32.5389C10.7164 31.8555 10.1424 31.0722 9.7531 30.1855L7.92181 30.9895C8.43253 32.1528 9.18354 33.1695 10.1619 34.0361L11.488 32.5389ZM9.7531 30.1855C9.36026 29.2907 9.16245 28.3405 9.16245 27.325H7.16245C7.16245 28.6095 7.41464 29.8343 7.92181 30.9895L9.7531 30.1855ZM9.16245 27.325C9.16245 26.2184 9.35392 25.1483 9.73795 24.1091L7.86196 23.4158C7.39598 24.6767 7.16245 25.9816 7.16245 27.325H9.16245ZM9.74445 24.091C10.0857 23.1099 10.6754 22.2211 11.5407 21.4223L10.1842 19.9527C9.09949 20.9539 8.31421 22.1151 7.85545 23.434L9.74445 24.091ZM11.5502 21.4135C12.3696 20.6372 13.4938 19.9895 14.9662 19.4987L14.3337 17.6013C12.6561 18.1605 11.2553 18.9378 10.1747 19.9615L11.5502 21.4135ZM14.9796 19.4941C16.4169 18.9922 18.2353 18.725 20.4625 18.725V16.725C18.0896 16.725 16.033 17.0078 14.3203 17.6059L14.9796 19.4941ZM20.4625 18.725C22.5323 18.725 24.6029 18.8954 26.6749 19.2367L27 17.2633C24.822 16.9046 22.6426 16.725 20.4625 16.725V18.725ZM26.688 19.2388C28.81 19.5595 30.8942 19.9665 32.9407 20.4597L33.4092 18.5153C31.3057 18.0084 29.1649 17.5905 26.9869 17.2612L26.688 19.2388ZM32.9543 20.4629C35.0355 20.9336 37.0533 21.4536 39.0079 22.0226L39.567 20.1024C37.5716 19.5214 35.5144 18.9914 33.3956 18.5121L32.9543 20.4629ZM39.0223 22.0267C41.03 22.5788 42.9511 23.0811 44.7855 23.5334L45.2644 21.5916C43.4488 21.1439 41.5449 20.6462 39.5526 20.0983L39.0223 22.0267ZM45.9033 23.0406C46.9174 21.1774 48.1626 19.7207 49.6294 18.6435L48.4455 17.0315C46.7123 18.3043 45.2825 19.9976 44.1466 22.0844L45.9033 23.0406ZM49.6375 18.6375C51.0766 17.5581 52.6062 17.0375 54.25 17.0375V15.0375C52.1437 15.0375 50.1983 15.7169 48.4375 17.0375L49.6375 18.6375ZM54.25 17.0375C54.9348 17.0375 55.5065 17.1549 55.9847 17.3653L56.7902 15.5347C56.0184 15.1951 55.1651 15.0375 54.25 15.0375V17.0375ZM56.0161 17.3785C56.5304 17.5842 56.937 17.8512 57.2553 18.1696L58.6696 16.7554C58.1379 16.2238 57.4945 15.8158 56.7588 15.5215L56.0161 17.3785ZM57.2553 18.1696C57.5723 18.4865 57.8044 18.8566 57.9555 19.291L59.8444 18.634C59.5956 17.9184 59.2026 17.2885 58.6696 16.7554L57.2553 18.1696ZM57.9744 19.3411C58.1477 19.7648 58.2375 20.223 58.2375 20.725H60.2375C60.2375 19.977 60.1022 19.2602 59.8255 18.5839L57.9744 19.3411ZM58.2375 20.725C58.2375 21.6101 58.029 22.3285 57.6472 22.9204L59.3277 24.0046C59.9459 23.0465 60.2375 21.9399 60.2375 20.725H58.2375ZM57.6426 22.9274C57.2584 23.5341 56.7117 24.0688 55.9745 24.5242L57.0254 26.2258C57.9882 25.6312 58.7665 24.8909 59.3323 23.9975L57.6426 22.9274ZM55.9929 24.5131C55.2501 24.95 54.3533 25.2911 53.2875 25.5228L53.7124 27.4772C54.9466 27.2089 56.0498 26.8 57.007 26.2369L55.9929 24.5131ZM53.3079 25.5186C52.2288 25.7297 51.0562 25.8375 49.7875 25.8375V27.8375C51.1687 27.8375 52.4711 27.7202 53.692 27.4814L53.3079 25.5186ZM49.7875 25.8375C49.7869 25.8375 49.7863 25.8375 49.7857 25.8375C49.7851 25.8375 49.7845 25.8375 49.7839 25.8375C49.7834 25.8375 49.7828 25.8375 49.7822 25.8375C49.7816 25.8375 49.781 25.8375 49.7804 25.8375C49.7798 25.8375 49.7792 25.8375 49.7787 25.8375C49.7781 25.8375 49.7775 25.8375 49.7769 25.8375C49.7763 25.8375 49.7757 25.8375 49.7751 25.8375C49.7746 25.8375 49.774 25.8375 49.7734 25.8375C49.7728 25.8375 49.7722 25.8375 49.7716 25.8375C49.771 25.8375 49.7704 25.8375 49.7699 25.8375C49.7693 25.8375 49.7687 25.8375 49.7681 25.8375C49.7675 25.8375 49.7669 25.8375 49.7663 25.8375C49.7658 25.8375 49.7652 25.8375 49.7646 25.8375C49.764 25.8375 49.7634 25.8375 49.7628 25.8375C49.7622 25.8375 49.7616 25.8375 49.7611 25.8375C49.7605 25.8375 49.7599 25.8375 49.7593 25.8375C49.7587 25.8375 49.7581 25.8375 49.7575 25.8375C49.7569 25.8375 49.7564 25.8375 49.7558 25.8375C49.7552 25.8375 49.7546 25.8375 49.754 25.8375C49.7534 25.8375 49.7528 25.8375 49.7522 25.8375C49.7517 25.8375 49.7511 25.8375 49.7505 25.8375C49.7499 25.8375 49.7493 25.8375 49.7487 25.8375C49.7481 25.8375 49.7475 25.8375 49.7469 25.8375C49.7464 25.8375 49.7458 25.8375 49.7452 25.8375C49.7446 25.8375 49.744 25.8375 49.7434 25.8375C49.7428 25.8375 49.7422 25.8375 49.7417 25.8375C49.7411 25.8375 49.7405 25.8375 49.7399 25.8375C49.7393 25.8375 49.7387 25.8375 49.7381 25.8375C49.7375 25.8375 49.7369 25.8375 49.7364 25.8375C49.7358 25.8375 49.7352 25.8375 49.7346 25.8375C49.734 25.8375 49.7334 25.8375 49.7328 25.8375C49.7322 25.8375 49.7316 25.8375 49.7311 25.8375C49.7305 25.8375 49.7299 25.8375 49.7293 25.8375C49.7287 25.8375 49.7281 25.8375 49.7275 25.8375C49.7269 25.8375 49.7263 25.8375 49.7258 25.8375C49.7252 25.8375 49.7246 25.8375 49.724 25.8375C49.7234 25.8375 49.7228 25.8375 49.7222 25.8375C49.7216 25.8375 49.721 25.8375 49.7204 25.8375C49.7199 25.8375 49.7193 25.8375 49.7187 25.8375C49.7181 25.8375 49.7175 25.8375 49.7169 25.8375C49.7163 25.8375 49.7157 25.8375 49.7151 25.8375C49.7146 25.8375 49.714 25.8375 49.7134 25.8375C49.7128 25.8375 49.7122 25.8375 49.7116 25.8375C49.711 25.8375 49.7104 25.8375 49.7098 25.8375C49.7092 25.8375 49.7087 25.8375 49.7081 25.8375C49.7075 25.8375 49.7069 25.8375 49.7063 25.8375C49.7057 25.8375 49.7051 25.8375 49.7045 25.8375C49.7039 25.8375 49.7033 25.8375 49.7027 25.8375C49.7022 25.8375 49.7016 25.8375 49.701 25.8375C49.7004 25.8375 49.6998 25.8375 49.6992 25.8375C49.6986 25.8375 49.698 25.8375 49.6974 25.8375C49.6968 25.8375 49.6963 25.8375 49.6957 25.8375C49.6951 25.8375 49.6945 25.8375 49.6939 25.8375C49.6933 25.8375 49.6927 25.8375 49.6921 25.8375C49.6915 25.8375 49.6909 25.8375 49.6903 25.8375C49.6897 25.8375 49.6892 25.8375 49.6886 25.8375C49.688 25.8375 49.6874 25.8375 49.6868 25.8375C49.6862 25.8375 49.6856 25.8375 49.685 25.8375C49.6844 25.8375 49.6838 25.8375 49.6832 25.8375C49.6827 25.8375 49.6821 25.8375 49.6815 25.8375C49.6809 25.8375 49.6803 25.8375 49.6797 25.8375C49.6791 25.8375 49.6785 25.8375 49.6779 25.8375C49.6773 25.8375 49.6767 25.8375 49.6761 25.8375C49.6756 25.8375 49.675 25.8375 49.6744 25.8375C49.6738 25.8375 49.6732 25.8375 49.6726 25.8375C49.672 25.8375 49.6714 25.8375 49.6708 25.8375C49.6702 25.8375 49.6696 25.8375 49.669 25.8375C49.6684 25.8375 49.6679 25.8375 49.6673 25.8375C49.6667 25.8375 49.6661 25.8375 49.6655 25.8375C49.6649 25.8375 49.6643 25.8375 49.6637 25.8375C49.6631 25.8375 49.6625 25.8375 49.6619 25.8375C49.6613 25.8375 49.6607 25.8375 49.6601 25.8375C49.6596 25.8375 49.659 25.8375 49.6584 25.8375C49.6578 25.8375 49.6572 25.8375 49.6566 25.8375C49.656 25.8375 49.6554 25.8375 49.6548 25.8375C49.6542 25.8375 49.6536 25.8375 49.653 25.8375C49.6524 25.8375 49.6518 25.8375 49.6513 25.8375C49.6507 25.8375 49.6501 25.8375 49.6495 25.8375C49.6489 25.8375 49.6483 25.8375 49.6477 25.8375C49.6471 25.8375 49.6465 25.8375 49.6459 25.8375C49.6453 25.8375 49.6447 25.8375 49.6441 25.8375C49.6435 25.8375 49.6429 25.8375 49.6424 25.8375C49.6418 25.8375 49.6412 25.8375 49.6406 25.8375C49.64 25.8375 49.6394 25.8375 49.6388 25.8375C49.6382 25.8375 49.6376 25.8375 49.637 25.8375C49.6364 25.8375 49.6358 25.8375 49.6352 25.8375C49.6346 25.8375 49.634 25.8375 49.6334 25.8375C49.6328 25.8375 49.6323 25.8375 49.6317 25.8375C49.6311 25.8375 49.6305 25.8375 49.6299 25.8375C49.6293 25.8375 49.6287 25.8375 49.6281 25.8375C49.6275 25.8375 49.6269 25.8375 49.6263 25.8375C49.6257 25.8375 49.6251 25.8375 49.6245 25.8375C49.6239 25.8375 49.6233 25.8375 49.6227 25.8375C49.6221 25.8375 49.6215 25.8375 49.621 25.8375C49.6204 25.8375 49.6198 25.8375 49.6192 25.8375C49.6186 25.8375 49.618 25.8375 49.6174 25.8375C49.6168 25.8375 49.6162 25.8375 49.6156 25.8375C49.615 25.8375 49.6144 25.8375 49.6138 25.8375C49.6132 25.8375 49.6126 25.8375 49.612 25.8375C49.6114 25.8375 49.6108 25.8375 49.6102 25.8375C49.6096 25.8375 49.609 25.8375 49.6085 25.8375C49.6079 25.8375 49.6073 25.8375 49.6067 25.8375C49.6061 25.8375 49.6055 25.8375 49.6049 25.8375C49.6043 25.8375 49.6037 25.8375 49.6031 25.8375C49.6025 25.8375 49.6019 25.8375 49.6013 25.8375C49.6007 25.8375 49.6001 25.8375 49.5995 25.8375C49.5989 25.8375 49.5983 25.8375 49.5977 25.8375C49.5971 25.8375 49.5965 25.8375 49.5959 25.8375C49.5953 25.8375 49.5947 25.8375 49.5942 25.8375C49.5936 25.8375 49.593 25.8375 49.5924 25.8375C49.5918 25.8375 49.5912 25.8375 49.5906 25.8375C49.59 25.8375 49.5894 25.8375 49.5888 25.8375C49.5882 25.8375 49.5876 25.8375 49.587 25.8375C49.5864 25.8375 49.5858 25.8375 49.5852 25.8375C49.5846 25.8375 49.584 25.8375 49.5834 25.8375C49.5828 25.8375 49.5822 25.8375 49.5816 25.8375C49.581 25.8375 49.5804 25.8375 49.5798 25.8375C49.5792 25.8375 49.5786 25.8375 49.578 25.8375C49.5774 25.8375 49.5768 25.8375 49.5762 25.8375C49.5756 25.8375 49.5751 25.8375 49.5745 25.8375C49.5739 25.8375 49.5733 25.8375 49.5727 25.8375C49.5721 25.8375 49.5715 25.8375 49.5709 25.8375C49.5703 25.8375 49.5697 25.8375 49.5691 25.8375C49.5685 25.8375 49.5679 25.8375 49.5673 25.8375C49.5667 25.8375 49.5661 25.8375 49.5655 25.8375C49.5649 25.8375 49.5643 25.8375 49.5637 25.8375C49.5631 25.8375 49.5625 25.8375 49.5619 25.8375C49.5613 25.8375 49.5607 25.8375 49.5601 25.8375C49.5595 25.8375 49.5589 25.8375 49.5583 25.8375C49.5577 25.8375 49.5571 25.8375 49.5565 25.8375C49.5559 25.8375 49.5553 25.8375 49.5547 25.8375C49.5541 25.8375 49.5535 25.8375 49.5529 25.8375C49.5523 25.8375 49.5517 25.8375 49.5511 25.8375C49.5505 25.8375 49.5499 25.8375 49.5493 25.8375C49.5487 25.8375 49.5481 25.8375 49.5475 25.8375C49.5469 25.8375 49.5463 25.8375 49.5457 25.8375C49.5451 25.8375 49.5445 25.8375 49.5439 25.8375C49.5433 25.8375 49.5427 25.8375 49.5422 25.8375C49.5416 25.8375 49.541 25.8375 49.5404 25.8375C49.5398 25.8375 49.5392 25.8375 49.5386 25.8375C49.538 25.8375 49.5374 25.8375 49.5368 25.8375C49.5362 25.8375 49.5356 25.8375 49.535 25.8375C49.5344 25.8375 49.5338 25.8375 49.5332 25.8375C49.5326 25.8375 49.532 25.8375 49.5314 25.8375C49.5308 25.8375 49.5302 25.8375 49.5296 25.8375C49.529 25.8375 49.5284 25.8375 49.5278 25.8375C49.5272 25.8375 49.5266 25.8375 49.526 25.8375C49.5254 25.8375 49.5248 25.8375 49.5242 25.8375C49.5236 25.8375 49.523 25.8375 49.5224 25.8375C49.5218 25.8375 49.5212 25.8375 49.5206 25.8375C49.52 25.8375 49.5194 25.8375 49.5188 25.8375C49.5182 25.8375 49.5176 25.8375 49.517 25.8375C49.5164 25.8375 49.5158 25.8375 49.5152 25.8375C49.5146 25.8375 49.514 25.8375 49.5134 25.8375C49.5128 25.8375 49.5122 25.8375 49.5116 25.8375C49.511 25.8375 49.5104 25.8375 49.5098 25.8375C49.5092 25.8375 49.5086 25.8375 49.508 25.8375C49.5073 25.8375 49.5067 25.8375 49.5061 25.8375C49.5055 25.8375 49.5049 25.8375 49.5043 25.8375C49.5037 25.8375 49.5031 25.8375 49.5025 25.8375C49.5019 25.8375 49.5013 25.8375 49.5007 25.8375C49.5001 25.8375 49.4995 25.8375 49.4989 25.8375C49.4983 25.8375 49.4977 25.8375 49.4971 25.8375C49.4965 25.8375 49.4959 25.8375 49.4953 25.8375C49.4947 25.8375 49.4941 25.8375 49.4935 25.8375C49.4929 25.8375 49.4923 25.8375 49.4917 25.8375C49.4911 25.8375 49.4905 25.8375 49.4899 25.8375C49.4893 25.8375 49.4887 25.8375 49.4881 25.8375C49.4875 25.8375 49.4869 25.8375 49.4863 25.8375C49.4857 25.8375 49.4851 25.8375 49.4845 25.8375C49.4839 25.8375 49.4833 25.8375 49.4827 25.8375C49.4821 25.8375 49.4815 25.8375 49.4809 25.8375C49.4803 25.8375 49.4797 25.8375 49.4791 25.8375C49.4785 25.8375 49.4779 25.8375 49.4773 25.8375C49.4767 25.8375 49.4761 25.8375 49.4755 25.8375C49.4749 25.8375 49.4742 25.8375 49.4736 25.8375C49.473 25.8375 49.4724 25.8375 49.4718 25.8375C49.4712 25.8375 49.4706 25.8375 49.47 25.8375C49.4694 25.8375 49.4688 25.8375 49.4682 25.8375C49.4676 25.8375 49.467 25.8375 49.4664 25.8375C49.4658 25.8375 49.4652 25.8375 49.4646 25.8375C49.464 25.8375 49.4634 25.8375 49.4628 25.8375C49.4622 25.8375 49.4616 25.8375 49.461 25.8375C49.4604 25.8375 49.4598 25.8375 49.4592 25.8375C49.4586 25.8375 49.458 25.8375 49.4574 25.8375C49.4568 25.8375 49.4562 25.8375 49.4556 25.8375C49.4549 25.8375 49.4543 25.8375 49.4537 25.8375C49.4531 25.8375 49.4525 25.8375 49.4519 25.8375C49.4513 25.8375 49.4507 25.8375 49.4501 25.8375C49.4495 25.8375 49.4489 25.8375 49.4483 25.8375C49.4477 25.8375 49.4471 25.8375 49.4465 25.8375C49.4459 25.8375 49.4453 25.8375 49.4447 25.8375C49.4441 25.8375 49.4435 25.8375 49.4429 25.8375C49.4423 25.8375 49.4417 25.8375 49.4411 25.8375C49.4404 25.8375 49.4398 25.8375 49.4392 25.8375C49.4386 25.8375 49.438 25.8375 49.4374 25.8375C49.4368 25.8375 49.4362 25.8375 49.4356 25.8375C49.435 25.8375 49.4344 25.8375 49.4338 25.8375C49.4332 25.8375 49.4326 25.8375 49.432 25.8375C49.4314 25.8375 49.4308 25.8375 49.4302 25.8375C49.4296 25.8375 49.429 25.8375 49.4284 25.8375C49.4277 25.8375 49.4271 25.8375 49.4265 25.8375C49.4259 25.8375 49.4253 25.8375 49.4247 25.8375C49.4241 25.8375 49.4235 25.8375 49.4229 25.8375C49.4223 25.8375 49.4217 25.8375 49.4211 25.8375C49.4205 25.8375 49.4199 25.8375 49.4193 25.8375C49.4187 25.8375 49.4181 25.8375 49.4175 25.8375C49.4169 25.8375 49.4162 25.8375 49.4156 25.8375C49.415 25.8375 49.4144 25.8375 49.4138 25.8375C49.4132 25.8375 49.4126 25.8375 49.412 25.8375C49.4114 25.8375 49.4108 25.8375 49.4102 25.8375C49.4096 25.8375 49.409 25.8375 49.4084 25.8375C49.4078 25.8375 49.4072 25.8375 49.4065 25.8375C49.4059 25.8375 49.4053 25.8375 49.4047 25.8375C49.4041 25.8375 49.4035 25.8375 49.4029 25.8375C49.4023 25.8375 49.4017 25.8375 49.4011 25.8375C49.4005 25.8375 49.3999 25.8375 49.3993 25.8375C49.3987 25.8375 49.3981 25.8375 49.3975 25.8375C49.3968 25.8375 49.3962 25.8375 49.3956 25.8375C49.395 25.8375 49.3944 25.8375 49.3938 25.8375C49.3932 25.8375 49.3926 25.8375 49.392 25.8375C49.3914 25.8375 49.3908 25.8375 49.3902 25.8375C49.3896 25.8375 49.389 25.8375 49.3883 25.8375C49.3877 25.8375 49.3871 25.8375 49.3865 25.8375C49.3859 25.8375 49.3853 25.8375 49.3847 25.8375C49.3841 25.8375 49.3835 25.8375 49.3829 25.8375C49.3823 25.8375 49.3817 25.8375 49.3811 25.8375C49.3805 25.8375 49.3798 25.8375 49.3792 25.8375C49.3786 25.8375 49.378 25.8375 49.3774 25.8375C49.3768 25.8375 49.3762 25.8375 49.3756 25.8375C49.375 25.8375 49.3744 25.8375 49.3738 25.8375C49.3732 25.8375 49.3725 25.8375 49.3719 25.8375C49.3713 25.8375 49.3707 25.8375 49.3701 25.8375C49.3695 25.8375 49.3689 25.8375 49.3683 25.8375C49.3677 25.8375 49.3671 25.8375 49.3665 25.8375C49.3659 25.8375 49.3653 25.8375 49.3646 25.8375C49.364 25.8375 49.3634 25.8375 49.3628 25.8375C49.3622 25.8375 49.3616 25.8375 49.361 25.8375C49.3604 25.8375 49.3598 25.8375 49.3592 25.8375C49.3586 25.8375 49.3579 25.8375 49.3573 25.8375C49.3567 25.8375 49.3561 25.8375 49.3555 25.8375C49.3549 25.8375 49.3543 25.8375 49.3537 25.8375C49.3531 25.8375 49.3525 25.8375 49.3519 25.8375C49.3512 25.8375 49.3506 25.8375 49.35 25.8375C49.3494 25.8375 49.3488 25.8375 49.3482 25.8375C49.3476 25.8375 49.347 25.8375 49.3464 25.8375C49.3458 25.8375 49.3452 25.8375 49.3445 25.8375C49.3439 25.8375 49.3433 25.8375 49.3427 25.8375C49.3421 25.8375 49.3415 25.8375 49.3409 25.8375C49.3403 25.8375 49.3397 25.8375 49.3391 25.8375C49.3384 25.8375 49.3378 25.8375 49.3372 25.8375C49.3366 25.8375 49.336 25.8375 49.3354 25.8375C49.3348 25.8375 49.3342 25.8375 49.3336 25.8375C49.333 25.8375 49.3323 25.8375 49.3317 25.8375C49.3311 25.8375 49.3305 25.8375 49.3299 25.8375C49.3293 25.8375 49.3287 25.8375 49.3281 25.8375C49.3275 25.8375 49.3269 25.8375 49.3262 25.8375C49.3256 25.8375 49.325 25.8375 49.3244 25.8375C49.3238 25.8375 49.3232 25.8375 49.3226 25.8375C49.322 25.8375 49.3214 25.8375 49.3208 25.8375C49.3201 25.8375 49.3195 25.8375 49.3189 25.8375C49.3183 25.8375 49.3177 25.8375 49.3171 25.8375C49.3165 25.8375 49.3159 25.8375 49.3153 25.8375C49.3146 25.8375 49.314 25.8375 49.3134 25.8375C49.3128 25.8375 49.3122 25.8375 49.3116 25.8375C49.311 25.8375 49.3104 25.8375 49.3098 25.8375C49.3091 25.8375 49.3085 25.8375 49.3079 25.8375C49.3073 25.8375 49.3067 25.8375 49.3061 25.8375C49.3055 25.8375 49.3049 25.8375 49.3042 25.8375C49.3036 25.8375 49.303 25.8375 49.3024 25.8375C49.3018 25.8375 49.3012 25.8375 49.3006 25.8375C49.3 25.8375 49.2994 25.8375 49.2987 25.8375C49.2981 25.8375 49.2975 25.8375 49.2969 25.8375C49.2963 25.8375 49.2957 25.8375 49.2951 25.8375C49.2945 25.8375 49.2938 25.8375 49.2932 25.8375C49.2926 25.8375 49.292 25.8375 49.2914 25.8375C49.2908 25.8375 49.2902 25.8375 49.2896 25.8375C49.289 25.8375 49.2883 25.8375 49.2877 25.8375C49.2871 25.8375 49.2865 25.8375 49.2859 25.8375C49.2853 25.8375 49.2847 25.8375 49.284 25.8375C49.2834 25.8375 49.2828 25.8375 49.2822 25.8375C49.2816 25.8375 49.281 25.8375 49.2804 25.8375C49.2798 25.8375 49.2791 25.8375 49.2785 25.8375C49.2779 25.8375 49.2773 25.8375 49.2767 25.8375C49.2761 25.8375 49.2755 25.8375 49.2749 25.8375C49.2742 25.8375 49.2736 25.8375 49.273 25.8375C49.2724 25.8375 49.2718 25.8375 49.2712 25.8375C49.2706 25.8375 49.27 25.8375 49.2693 25.8375C49.2687 25.8375 49.2681 25.8375 49.2675 25.8375C49.2669 25.8375 49.2663 25.8375 49.2657 25.8375C49.265 25.8375 49.2644 25.8375 49.2638 25.8375C49.2632 25.8375 49.2626 25.8375 49.262 25.8375C49.2614 25.8375 49.2607 25.8375 49.2601 25.8375C49.2595 25.8375 49.2589 25.8375 49.2583 25.8375C49.2577 25.8375 49.2571 25.8375 49.2564 25.8375C49.2558 25.8375 49.2552 25.8375 49.2546 25.8375C49.254 25.8375 49.2534 25.8375 49.2528 25.8375C49.2521 25.8375 49.2515 25.8375 49.2509 25.8375C49.2503 25.8375 49.2497 25.8375 49.2491 25.8375C49.2485 25.8375 49.2478 25.8375 49.2472 25.8375C49.2466 25.8375 49.246 25.8375 49.2454 25.8375C49.2448 25.8375 49.2442 25.8375 49.2435 25.8375C49.2429 25.8375 49.2423 25.8375 49.2417 25.8375C49.2411 25.8375 49.2405 25.8375 49.2399 25.8375C49.2392 25.8375 49.2386 25.8375 49.238 25.8375C49.2374 25.8375 49.2368 25.8375 49.2362 25.8375C49.2356 25.8375 49.2349 25.8375 49.2343 25.8375C49.2337 25.8375 49.2331 25.8375 49.2325 25.8375C49.2319 25.8375 49.2312 25.8375 49.2306 25.8375C49.23 25.8375 49.2294 25.8375 49.2288 25.8375C49.2282 25.8375 49.2276 25.8375 49.2269 25.8375C49.2263 25.8375 49.2257 25.8375 49.2251 25.8375C49.2245 25.8375 49.2239 25.8375 49.2232 25.8375C49.2226 25.8375 49.222 25.8375 49.2214 25.8375C49.2208 25.8375 49.2202 25.8375 49.2195 25.8375C49.2189 25.8375 49.2183 25.8375 49.2177 25.8375C49.2171 25.8375 49.2165 25.8375 49.2159 25.8375C49.2152 25.8375 49.2146 25.8375 49.214 25.8375C49.2134 25.8375 49.2128 25.8375 49.2122 25.8375C49.2115 25.8375 49.2109 25.8375 49.2103 25.8375C49.2097 25.8375 49.2091 25.8375 49.2085 25.8375C49.2078 25.8375 49.2072 25.8375 49.2066 25.8375C49.206 25.8375 49.2054 25.8375 49.2048 25.8375C49.2041 25.8375 49.2035 25.8375 49.2029 25.8375C49.2023 25.8375 49.2017 25.8375 49.2011 25.8375C49.2004 25.8375 49.1998 25.8375 49.1992 25.8375C49.1986 25.8375 49.198 25.8375 49.1974 25.8375C49.1967 25.8375 49.1961 25.8375 49.1955 25.8375C49.1949 25.8375 49.1943 25.8375 49.1936 25.8375C49.193 25.8375 49.1924 25.8375 49.1918 25.8375C49.1912 25.8375 49.1906 25.8375 49.1899 25.8375C49.1893 25.8375 49.1887 25.8375 49.1881 25.8375C49.1875 25.8375 49.1869 25.8375 49.1862 25.8375C49.1856 25.8375 49.185 25.8375 49.1844 25.8375C49.1838 25.8375 49.1831 25.8375 49.1825 25.8375C49.1819 25.8375 49.1813 25.8375 49.1807 25.8375C49.1801 25.8375 49.1794 25.8375 49.1788 25.8375C49.1782 25.8375 49.1776 25.8375 49.177 25.8375C49.1764 25.8375 49.1757 25.8375 49.1751 25.8375C49.1745 25.8375 49.1739 25.8375 49.1733 25.8375C49.1726 25.8375 49.172 25.8375 49.1714 25.8375C49.1708 25.8375 49.1702 25.8375 49.1695 25.8375C49.1689 25.8375 49.1683 25.8375 49.1677 25.8375C49.1671 25.8375 49.1665 25.8375 49.1658 25.8375C49.1652 25.8375 49.1646 25.8375 49.164 25.8375C49.1634 25.8375 49.1627 25.8375 49.1621 25.8375C49.1615 25.8375 49.1609 25.8375 49.1603 25.8375C49.1596 25.8375 49.159 25.8375 49.1584 25.8375C49.1578 25.8375 49.1572 25.8375 49.1566 25.8375C49.1559 25.8375 49.1553 25.8375 49.1547 25.8375C49.1541 25.8375 49.1535 25.8375 49.1528 25.8375C49.1522 25.8375 49.1516 25.8375 49.151 25.8375C49.1504 25.8375 49.1497 25.8375 49.1491 25.8375C49.1485 25.8375 49.1479 25.8375 49.1473 25.8375C49.1466 25.8375 49.146 25.8375 49.1454 25.8375C49.1448 25.8375 49.1442 25.8375 49.1435 25.8375C49.1429 25.8375 49.1423 25.8375 49.1417 25.8375C49.1411 25.8375 49.1404 25.8375 49.1398 25.8375C49.1392 25.8375 49.1386 25.8375 49.138 25.8375C49.1373 25.8375 49.1367 25.8375 49.1361 25.8375C49.1355 25.8375 49.1349 25.8375 49.1342 25.8375C49.1336 25.8375 49.133 25.8375 49.1324 25.8375C49.1318 25.8375 49.1311 25.8375 49.1305 25.8375C49.1299 25.8375 49.1293 25.8375 49.1287 25.8375C49.128 25.8375 49.1274 25.8375 49.1268 25.8375C49.1262 25.8375 49.1256 25.8375 49.1249 25.8375C49.1243 25.8375 49.1237 25.8375 49.1231 25.8375C49.1224 25.8375 49.1218 25.8375 49.1212 25.8375C49.1206 25.8375 49.12 25.8375 49.1193 25.8375C49.1187 25.8375 49.1181 25.8375 49.1175 25.8375C49.1169 25.8375 49.1162 25.8375 49.1156 25.8375C49.115 25.8375 49.1144 25.8375 49.1138 25.8375C49.1131 25.8375 49.1125 25.8375 49.1119 25.8375C49.1113 25.8375 49.1106 25.8375 49.11 25.8375C49.1094 25.8375 49.1088 25.8375 49.1082 25.8375C49.1075 25.8375 49.1069 25.8375 49.1063 25.8375C49.1057 25.8375 49.105 25.8375 49.1044 25.8375C49.1038 25.8375 49.1032 25.8375 49.1026 25.8375C49.1019 25.8375 49.1013 25.8375 49.1007 25.8375C49.1001 25.8375 49.0994 25.8375 49.0988 25.8375C49.0982 25.8375 49.0976 25.8375 49.097 25.8375C49.0963 25.8375 49.0957 25.8375 49.0951 25.8375C49.0945 25.8375 49.0938 25.8375 49.0932 25.8375C49.0926 25.8375 49.092 25.8375 49.0914 25.8375C49.0907 25.8375 49.0901 25.8375 49.0895 25.8375C49.0889 25.8375 49.0882 25.8375 49.0876 25.8375C49.087 25.8375 49.0864 25.8375 49.0858 25.8375C49.0851 25.8375 49.0845 25.8375 49.0839 25.8375C49.0833 25.8375 49.0826 25.8375 49.082 25.8375C49.0814 25.8375 49.0808 25.8375 49.0801 25.8375C49.0795 25.8375 49.0789 25.8375 49.0783 25.8375C49.0777 25.8375 49.077 25.8375 49.0764 25.8375C49.0758 25.8375 49.0752 25.8375 49.0745 25.8375C49.0739 25.8375 49.0733 25.8375 49.0727 25.8375C49.072 25.8375 49.0714 25.8375 49.0708 25.8375C49.0702 25.8375 49.0695 25.8375 49.0689 25.8375C49.0683 25.8375 49.0677 25.8375 49.0671 25.8375C49.0664 25.8375 49.0658 25.8375 49.0652 25.8375C49.0646 25.8375 49.0639 25.8375 49.0633 25.8375C49.0627 25.8375 49.0621 25.8375 49.0614 25.8375C49.0608 25.8375 49.0602 25.8375 49.0596 25.8375C49.0589 25.8375 49.0583 25.8375 49.0577 25.8375C49.0571 25.8375 49.0564 25.8375 49.0558 25.8375C49.0552 25.8375 49.0546 25.8375 49.0539 25.8375C49.0533 25.8375 49.0527 25.8375 49.0521 25.8375C49.0515 25.8375 49.0508 25.8375 49.0502 25.8375C49.0496 25.8375 49.049 25.8375 49.0483 25.8375C49.0477 25.8375 49.0471 25.8375 49.0465 25.8375C49.0458 25.8375 49.0452 25.8375 49.0446 25.8375C49.044 25.8375 49.0433 25.8375 49.0427 25.8375C49.0421 25.8375 49.0415 25.8375 49.0408 25.8375C49.0402 25.8375 49.0396 25.8375 49.039 25.8375C49.0383 25.8375 49.0377 25.8375 49.0371 25.8375C49.0365 25.8375 49.0358 25.8375 49.0352 25.8375C49.0346 25.8375 49.0339 25.8375 49.0333 25.8375C49.0327 25.8375 49.0321 25.8375 49.0314 25.8375C49.0308 25.8375 49.0302 25.8375 49.0296 25.8375C49.0289 25.8375 49.0283 25.8375 49.0277 25.8375C49.0271 25.8375 49.0264 25.8375 49.0258 25.8375C49.0252 25.8375 49.0246 25.8375 49.0239 25.8375C49.0233 25.8375 49.0227 25.8375 49.0221 25.8375C49.0214 25.8375 49.0208 25.8375 49.0202 25.8375C49.0196 25.8375 49.0189 25.8375 49.0183 25.8375C49.0177 25.8375 49.017 25.8375 49.0164 25.8375C49.0158 25.8375 49.0152 25.8375 49.0145 25.8375C49.0139 25.8375 49.0133 25.8375 49.0127 25.8375C49.012 25.8375 49.0114 25.8375 49.0108 25.8375C49.0102 25.8375 49.0095 25.8375 49.0089 25.8375C49.0083 25.8375 49.0077 25.8375 49.007 25.8375C49.0064 25.8375 49.0058 25.8375 49.0051 25.8375C49.0045 25.8375 49.0039 25.8375 49.0033 25.8375C49.0026 25.8375 49.002 25.8375 49.0014 25.8375C49.0008 25.8375 49.0001 25.8375 48.9995 25.8375C48.9989 25.8375 48.9982 25.8375 48.9976 25.8375C48.997 25.8375 48.9964 25.8375 48.9957 25.8375C48.9951 25.8375 48.9945 25.8375 48.9939 25.8375C48.9932 25.8375 48.9926 25.8375 48.992 25.8375C48.9913 25.8375 48.9907 25.8375 48.9901 25.8375C48.9895 25.8375 48.9888 25.8375 48.9882 25.8375C48.9876 25.8375 48.9869 25.8375 48.9863 25.8375C48.9857 25.8375 48.9851 25.8375 48.9844 25.8375C48.9838 25.8375 48.9832 25.8375 48.9826 25.8375C48.9819 25.8375 48.9813 25.8375 48.9807 25.8375C48.98 25.8375 48.9794 25.8375 48.9788 25.8375C48.9782 25.8375 48.9775 25.8375 48.9769 25.8375C48.9763 25.8375 48.9756 25.8375 48.975 25.8375C48.9744 25.8375 48.9738 25.8375 48.9731 25.8375C48.9725 25.8375 48.9719 25.8375 48.9712 25.8375C48.9706 25.8375 48.97 25.8375 48.9694 25.8375C48.9687 25.8375 48.9681 25.8375 48.9675 25.8375C48.9668 25.8375 48.9662 25.8375 48.9656 25.8375C48.965 25.8375 48.9643 25.8375 48.9637 25.8375C48.9631 25.8375 48.9624 25.8375 48.9618 25.8375C48.9612 25.8375 48.9605 25.8375 48.9599 25.8375C48.9593 25.8375 48.9587 25.8375 48.958 25.8375C48.9574 25.8375 48.9568 25.8375 48.9561 25.8375C48.9555 25.8375 48.9549 25.8375 48.9543 25.8375C48.9536 25.8375 48.953 25.8375 48.9524 25.8375C48.9517 25.8375 48.9511 25.8375 48.9505 25.8375C48.9498 25.8375 48.9492 25.8375 48.9486 25.8375C48.948 25.8375 48.9473 25.8375 48.9467 25.8375C48.9461 25.8375 48.9454 25.8375 48.9448 25.8375C48.9442 25.8375 48.9435 25.8375 48.9429 25.8375C48.9423 25.8375 48.9417 25.8375 48.941 25.8375C48.9404 25.8375 48.9398 25.8375 48.9391 25.8375C48.9385 25.8375 48.9379 25.8375 48.9372 25.8375C48.9366 25.8375 48.936 25.8375 48.9354 25.8375C48.9347 25.8375 48.9341 25.8375 48.9335 25.8375C48.9328 25.8375 48.9322 25.8375 48.9316 25.8375C48.9309 25.8375 48.9303 25.8375 48.9297 25.8375C48.9291 25.8375 48.9284 25.8375 48.9278 25.8375C48.9272 25.8375 48.9265 25.8375 48.9259 25.8375C48.9253 25.8375 48.9246 25.8375 48.924 25.8375C48.9234 25.8375 48.9227 25.8375 48.9221 25.8375C48.9215 25.8375 48.9208 25.8375 48.9202 25.8375C48.9196 25.8375 48.919 25.8375 48.9183 25.8375C48.9177 25.8375 48.9171 25.8375 48.9164 25.8375C48.9158 25.8375 48.9152 25.8375 48.9145 25.8375C48.9139 25.8375 48.9133 25.8375 48.9126 25.8375C48.912 25.8375 48.9114 25.8375 48.9107 25.8375C48.9101 25.8375 48.9095 25.8375 48.9088 25.8375C48.9082 25.8375 48.9076 25.8375 48.907 25.8375C48.9063 25.8375 48.9057 25.8375 48.9051 25.8375C48.9044 25.8375 48.9038 25.8375 48.9032 25.8375C48.9025 25.8375 48.9019 25.8375 48.9013 25.8375C48.9006 25.8375 48.9 25.8375 48.8994 25.8375C48.8987 25.8375 48.8981 25.8375 48.8975 25.8375C48.8968 25.8375 48.8962 25.8375 48.8956 25.8375C48.8949 25.8375 48.8943 25.8375 48.8937 25.8375C48.893 25.8375 48.8924 25.8375 48.8918 25.8375C48.8911 25.8375 48.8905 25.8375 48.8899 25.8375C48.8892 25.8375 48.8886 25.8375 48.888 25.8375C48.8873 25.8375 48.8867 25.8375 48.8861 25.8375C48.8854 25.8375 48.8848 25.8375 48.8842 25.8375C48.8836 25.8375 48.8829 25.8375 48.8823 25.8375C48.8817 25.8375 48.881 25.8375 48.8804 25.8375C48.8798 25.8375 48.8791 25.8375 48.8785 25.8375C48.8779 25.8375 48.8772 25.8375 48.8766 25.8375C48.876 25.8375 48.8753 25.8375 48.8747 25.8375C48.8741 25.8375 48.8734 25.8375 48.8728 25.8375C48.8722 25.8375 48.8715 25.8375 48.8709 25.8375C48.8702 25.8375 48.8696 25.8375 48.869 25.8375C48.8683 25.8375 48.8677 25.8375 48.8671 25.8375C48.8664 25.8375 48.8658 25.8375 48.8652 25.8375C48.8645 25.8375 48.8639 25.8375 48.8633 25.8375C48.8626 25.8375 48.862 25.8375 48.8614 25.8375C48.8607 25.8375 48.8601 25.8375 48.8595 25.8375C48.8588 25.8375 48.8582 25.8375 48.8576 25.8375C48.8569 25.8375 48.8563 25.8375 48.8557 25.8375C48.855 25.8375 48.8544 25.8375 48.8538 25.8375C48.8531 25.8375 48.8525 25.8375 48.8519 25.8375C48.8512 25.8375 48.8506 25.8375 48.85 25.8375V27.8375C48.8506 27.8375 48.8512 27.8375 48.8519 27.8375C48.8525 27.8375 48.8531 27.8375 48.8538 27.8375C48.8544 27.8375 48.855 27.8375 48.8557 27.8375C48.8563 27.8375 48.8569 27.8375 48.8576 27.8375C48.8582 27.8375 48.8588 27.8375 48.8595 27.8375C48.8601 27.8375 48.8607 27.8375 48.8614 27.8375C48.862 27.8375 48.8626 27.8375 48.8633 27.8375C48.8639 27.8375 48.8645 27.8375 48.8652 27.8375C48.8658 27.8375 48.8664 27.8375 48.8671 27.8375C48.8677 27.8375 48.8683 27.8375 48.869 27.8375C48.8696 27.8375 48.8702 27.8375 48.8709 27.8375C48.8715 27.8375 48.8722 27.8375 48.8728 27.8375C48.8734 27.8375 48.8741 27.8375 48.8747 27.8375C48.8753 27.8375 48.876 27.8375 48.8766 27.8375C48.8772 27.8375 48.8779 27.8375 48.8785 27.8375C48.8791 27.8375 48.8798 27.8375 48.8804 27.8375C48.881 27.8375 48.8817 27.8375 48.8823 27.8375C48.8829 27.8375 48.8836 27.8375 48.8842 27.8375C48.8848 27.8375 48.8854 27.8375 48.8861 27.8375C48.8867 27.8375 48.8873 27.8375 48.888 27.8375C48.8886 27.8375 48.8892 27.8375 48.8899 27.8375C48.8905 27.8375 48.8911 27.8375 48.8918 27.8375C48.8924 27.8375 48.893 27.8375 48.8937 27.8375C48.8943 27.8375 48.8949 27.8375 48.8956 27.8375C48.8962 27.8375 48.8968 27.8375 48.8975 27.8375C48.8981 27.8375 48.8987 27.8375 48.8994 27.8375C48.9 27.8375 48.9006 27.8375 48.9013 27.8375C48.9019 27.8375 48.9025 27.8375 48.9032 27.8375C48.9038 27.8375 48.9044 27.8375 48.9051 27.8375C48.9057 27.8375 48.9063 27.8375 48.907 27.8375C48.9076 27.8375 48.9082 27.8375 48.9088 27.8375C48.9095 27.8375 48.9101 27.8375 48.9107 27.8375C48.9114 27.8375 48.912 27.8375 48.9126 27.8375C48.9133 27.8375 48.9139 27.8375 48.9145 27.8375C48.9152 27.8375 48.9158 27.8375 48.9164 27.8375C48.9171 27.8375 48.9177 27.8375 48.9183 27.8375C48.919 27.8375 48.9196 27.8375 48.9202 27.8375C48.9208 27.8375 48.9215 27.8375 48.9221 27.8375C48.9227 27.8375 48.9234 27.8375 48.924 27.8375C48.9246 27.8375 48.9253 27.8375 48.9259 27.8375C48.9265 27.8375 48.9272 27.8375 48.9278 27.8375C48.9284 27.8375 48.9291 27.8375 48.9297 27.8375C48.9303 27.8375 48.9309 27.8375 48.9316 27.8375C48.9322 27.8375 48.9328 27.8375 48.9335 27.8375C48.9341 27.8375 48.9347 27.8375 48.9354 27.8375C48.936 27.8375 48.9366 27.8375 48.9372 27.8375C48.9379 27.8375 48.9385 27.8375 48.9391 27.8375C48.9398 27.8375 48.9404 27.8375 48.941 27.8375C48.9417 27.8375 48.9423 27.8375 48.9429 27.8375C48.9435 27.8375 48.9442 27.8375 48.9448 27.8375C48.9454 27.8375 48.9461 27.8375 48.9467 27.8375C48.9473 27.8375 48.948 27.8375 48.9486 27.8375C48.9492 27.8375 48.9498 27.8375 48.9505 27.8375C48.9511 27.8375 48.9517 27.8375 48.9524 27.8375C48.953 27.8375 48.9536 27.8375 48.9543 27.8375C48.9549 27.8375 48.9555 27.8375 48.9561 27.8375C48.9568 27.8375 48.9574 27.8375 48.958 27.8375C48.9587 27.8375 48.9593 27.8375 48.9599 27.8375C48.9605 27.8375 48.9612 27.8375 48.9618 27.8375C48.9624 27.8375 48.9631 27.8375 48.9637 27.8375C48.9643 27.8375 48.965 27.8375 48.9656 27.8375C48.9662 27.8375 48.9668 27.8375 48.9675 27.8375C48.9681 27.8375 48.9687 27.8375 48.9694 27.8375C48.97 27.8375 48.9706 27.8375 48.9712 27.8375C48.9719 27.8375 48.9725 27.8375 48.9731 27.8375C48.9738 27.8375 48.9744 27.8375 48.975 27.8375C48.9756 27.8375 48.9763 27.8375 48.9769 27.8375C48.9775 27.8375 48.9782 27.8375 48.9788 27.8375C48.9794 27.8375 48.98 27.8375 48.9807 27.8375C48.9813 27.8375 48.9819 27.8375 48.9826 27.8375C48.9832 27.8375 48.9838 27.8375 48.9844 27.8375C48.9851 27.8375 48.9857 27.8375 48.9863 27.8375C48.9869 27.8375 48.9876 27.8375 48.9882 27.8375C48.9888 27.8375 48.9895 27.8375 48.9901 27.8375C48.9907 27.8375 48.9913 27.8375 48.992 27.8375C48.9926 27.8375 48.9932 27.8375 48.9939 27.8375C48.9945 27.8375 48.9951 27.8375 48.9957 27.8375C48.9964 27.8375 48.997 27.8375 48.9976 27.8375C48.9982 27.8375 48.9989 27.8375 48.9995 27.8375C49.0001 27.8375 49.0008 27.8375 49.0014 27.8375C49.002 27.8375 49.0026 27.8375 49.0033 27.8375C49.0039 27.8375 49.0045 27.8375 49.0051 27.8375C49.0058 27.8375 49.0064 27.8375 49.007 27.8375C49.0077 27.8375 49.0083 27.8375 49.0089 27.8375C49.0095 27.8375 49.0102 27.8375 49.0108 27.8375C49.0114 27.8375 49.012 27.8375 49.0127 27.8375C49.0133 27.8375 49.0139 27.8375 49.0145 27.8375C49.0152 27.8375 49.0158 27.8375 49.0164 27.8375C49.017 27.8375 49.0177 27.8375 49.0183 27.8375C49.0189 27.8375 49.0196 27.8375 49.0202 27.8375C49.0208 27.8375 49.0214 27.8375 49.0221 27.8375C49.0227 27.8375 49.0233 27.8375 49.0239 27.8375C49.0246 27.8375 49.0252 27.8375 49.0258 27.8375C49.0264 27.8375 49.0271 27.8375 49.0277 27.8375C49.0283 27.8375 49.0289 27.8375 49.0296 27.8375C49.0302 27.8375 49.0308 27.8375 49.0314 27.8375C49.0321 27.8375 49.0327 27.8375 49.0333 27.8375C49.0339 27.8375 49.0346 27.8375 49.0352 27.8375C49.0358 27.8375 49.0365 27.8375 49.0371 27.8375C49.0377 27.8375 49.0383 27.8375 49.039 27.8375C49.0396 27.8375 49.0402 27.8375 49.0408 27.8375C49.0415 27.8375 49.0421 27.8375 49.0427 27.8375C49.0433 27.8375 49.044 27.8375 49.0446 27.8375C49.0452 27.8375 49.0458 27.8375 49.0465 27.8375C49.0471 27.8375 49.0477 27.8375 49.0483 27.8375C49.049 27.8375 49.0496 27.8375 49.0502 27.8375C49.0508 27.8375 49.0515 27.8375 49.0521 27.8375C49.0527 27.8375 49.0533 27.8375 49.0539 27.8375C49.0546 27.8375 49.0552 27.8375 49.0558 27.8375C49.0564 27.8375 49.0571 27.8375 49.0577 27.8375C49.0583 27.8375 49.0589 27.8375 49.0596 27.8375C49.0602 27.8375 49.0608 27.8375 49.0614 27.8375C49.0621 27.8375 49.0627 27.8375 49.0633 27.8375C49.0639 27.8375 49.0646 27.8375 49.0652 27.8375C49.0658 27.8375 49.0664 27.8375 49.0671 27.8375C49.0677 27.8375 49.0683 27.8375 49.0689 27.8375C49.0695 27.8375 49.0702 27.8375 49.0708 27.8375C49.0714 27.8375 49.072 27.8375 49.0727 27.8375C49.0733 27.8375 49.0739 27.8375 49.0745 27.8375C49.0752 27.8375 49.0758 27.8375 49.0764 27.8375C49.077 27.8375 49.0777 27.8375 49.0783 27.8375C49.0789 27.8375 49.0795 27.8375 49.0801 27.8375C49.0808 27.8375 49.0814 27.8375 49.082 27.8375C49.0826 27.8375 49.0833 27.8375 49.0839 27.8375C49.0845 27.8375 49.0851 27.8375 49.0858 27.8375C49.0864 27.8375 49.087 27.8375 49.0876 27.8375C49.0882 27.8375 49.0889 27.8375 49.0895 27.8375C49.0901 27.8375 49.0907 27.8375 49.0914 27.8375C49.092 27.8375 49.0926 27.8375 49.0932 27.8375C49.0938 27.8375 49.0945 27.8375 49.0951 27.8375C49.0957 27.8375 49.0963 27.8375 49.097 27.8375C49.0976 27.8375 49.0982 27.8375 49.0988 27.8375C49.0994 27.8375 49.1001 27.8375 49.1007 27.8375C49.1013 27.8375 49.1019 27.8375 49.1026 27.8375C49.1032 27.8375 49.1038 27.8375 49.1044 27.8375C49.105 27.8375 49.1057 27.8375 49.1063 27.8375C49.1069 27.8375 49.1075 27.8375 49.1082 27.8375C49.1088 27.8375 49.1094 27.8375 49.11 27.8375C49.1106 27.8375 49.1113 27.8375 49.1119 27.8375C49.1125 27.8375 49.1131 27.8375 49.1138 27.8375C49.1144 27.8375 49.115 27.8375 49.1156 27.8375C49.1162 27.8375 49.1169 27.8375 49.1175 27.8375C49.1181 27.8375 49.1187 27.8375 49.1193 27.8375C49.12 27.8375 49.1206 27.8375 49.1212 27.8375C49.1218 27.8375 49.1224 27.8375 49.1231 27.8375C49.1237 27.8375 49.1243 27.8375 49.1249 27.8375C49.1256 27.8375 49.1262 27.8375 49.1268 27.8375C49.1274 27.8375 49.128 27.8375 49.1287 27.8375C49.1293 27.8375 49.1299 27.8375 49.1305 27.8375C49.1311 27.8375 49.1318 27.8375 49.1324 27.8375C49.133 27.8375 49.1336 27.8375 49.1342 27.8375C49.1349 27.8375 49.1355 27.8375 49.1361 27.8375C49.1367 27.8375 49.1373 27.8375 49.138 27.8375C49.1386 27.8375 49.1392 27.8375 49.1398 27.8375C49.1404 27.8375 49.1411 27.8375 49.1417 27.8375C49.1423 27.8375 49.1429 27.8375 49.1435 27.8375C49.1442 27.8375 49.1448 27.8375 49.1454 27.8375C49.146 27.8375 49.1466 27.8375 49.1473 27.8375C49.1479 27.8375 49.1485 27.8375 49.1491 27.8375C49.1497 27.8375 49.1504 27.8375 49.151 27.8375C49.1516 27.8375 49.1522 27.8375 49.1528 27.8375C49.1535 27.8375 49.1541 27.8375 49.1547 27.8375C49.1553 27.8375 49.1559 27.8375 49.1566 27.8375C49.1572 27.8375 49.1578 27.8375 49.1584 27.8375C49.159 27.8375 49.1596 27.8375 49.1603 27.8375C49.1609 27.8375 49.1615 27.8375 49.1621 27.8375C49.1627 27.8375 49.1634 27.8375 49.164 27.8375C49.1646 27.8375 49.1652 27.8375 49.1658 27.8375C49.1665 27.8375 49.1671 27.8375 49.1677 27.8375C49.1683 27.8375 49.1689 27.8375 49.1695 27.8375C49.1702 27.8375 49.1708 27.8375 49.1714 27.8375C49.172 27.8375 49.1726 27.8375 49.1733 27.8375C49.1739 27.8375 49.1745 27.8375 49.1751 27.8375C49.1757 27.8375 49.1764 27.8375 49.177 27.8375C49.1776 27.8375 49.1782 27.8375 49.1788 27.8375C49.1794 27.8375 49.1801 27.8375 49.1807 27.8375C49.1813 27.8375 49.1819 27.8375 49.1825 27.8375C49.1831 27.8375 49.1838 27.8375 49.1844 27.8375C49.185 27.8375 49.1856 27.8375 49.1862 27.8375C49.1869 27.8375 49.1875 27.8375 49.1881 27.8375C49.1887 27.8375 49.1893 27.8375 49.1899 27.8375C49.1906 27.8375 49.1912 27.8375 49.1918 27.8375C49.1924 27.8375 49.193 27.8375 49.1936 27.8375C49.1943 27.8375 49.1949 27.8375 49.1955 27.8375C49.1961 27.8375 49.1967 27.8375 49.1974 27.8375C49.198 27.8375 49.1986 27.8375 49.1992 27.8375C49.1998 27.8375 49.2004 27.8375 49.2011 27.8375C49.2017 27.8375 49.2023 27.8375 49.2029 27.8375C49.2035 27.8375 49.2041 27.8375 49.2048 27.8375C49.2054 27.8375 49.206 27.8375 49.2066 27.8375C49.2072 27.8375 49.2078 27.8375 49.2085 27.8375C49.2091 27.8375 49.2097 27.8375 49.2103 27.8375C49.2109 27.8375 49.2115 27.8375 49.2122 27.8375C49.2128 27.8375 49.2134 27.8375 49.214 27.8375C49.2146 27.8375 49.2152 27.8375 49.2159 27.8375C49.2165 27.8375 49.2171 27.8375 49.2177 27.8375C49.2183 27.8375 49.2189 27.8375 49.2195 27.8375C49.2202 27.8375 49.2208 27.8375 49.2214 27.8375C49.222 27.8375 49.2226 27.8375 49.2232 27.8375C49.2239 27.8375 49.2245 27.8375 49.2251 27.8375C49.2257 27.8375 49.2263 27.8375 49.2269 27.8375C49.2276 27.8375 49.2282 27.8375 49.2288 27.8375C49.2294 27.8375 49.23 27.8375 49.2306 27.8375C49.2312 27.8375 49.2319 27.8375 49.2325 27.8375C49.2331 27.8375 49.2337 27.8375 49.2343 27.8375C49.2349 27.8375 49.2356 27.8375 49.2362 27.8375C49.2368 27.8375 49.2374 27.8375 49.238 27.8375C49.2386 27.8375 49.2392 27.8375 49.2399 27.8375C49.2405 27.8375 49.2411 27.8375 49.2417 27.8375C49.2423 27.8375 49.2429 27.8375 49.2435 27.8375C49.2442 27.8375 49.2448 27.8375 49.2454 27.8375C49.246 27.8375 49.2466 27.8375 49.2472 27.8375C49.2478 27.8375 49.2485 27.8375 49.2491 27.8375C49.2497 27.8375 49.2503 27.8375 49.2509 27.8375C49.2515 27.8375 49.2521 27.8375 49.2528 27.8375C49.2534 27.8375 49.254 27.8375 49.2546 27.8375C49.2552 27.8375 49.2558 27.8375 49.2564 27.8375C49.2571 27.8375 49.2577 27.8375 49.2583 27.8375C49.2589 27.8375 49.2595 27.8375 49.2601 27.8375C49.2607 27.8375 49.2614 27.8375 49.262 27.8375C49.2626 27.8375 49.2632 27.8375 49.2638 27.8375C49.2644 27.8375 49.265 27.8375 49.2657 27.8375C49.2663 27.8375 49.2669 27.8375 49.2675 27.8375C49.2681 27.8375 49.2687 27.8375 49.2693 27.8375C49.27 27.8375 49.2706 27.8375 49.2712 27.8375C49.2718 27.8375 49.2724 27.8375 49.273 27.8375C49.2736 27.8375 49.2742 27.8375 49.2749 27.8375C49.2755 27.8375 49.2761 27.8375 49.2767 27.8375C49.2773 27.8375 49.2779 27.8375 49.2785 27.8375C49.2791 27.8375 49.2798 27.8375 49.2804 27.8375C49.281 27.8375 49.2816 27.8375 49.2822 27.8375C49.2828 27.8375 49.2834 27.8375 49.284 27.8375C49.2847 27.8375 49.2853 27.8375 49.2859 27.8375C49.2865 27.8375 49.2871 27.8375 49.2877 27.8375C49.2883 27.8375 49.289 27.8375 49.2896 27.8375C49.2902 27.8375 49.2908 27.8375 49.2914 27.8375C49.292 27.8375 49.2926 27.8375 49.2932 27.8375C49.2938 27.8375 49.2945 27.8375 49.2951 27.8375C49.2957 27.8375 49.2963 27.8375 49.2969 27.8375C49.2975 27.8375 49.2981 27.8375 49.2987 27.8375C49.2994 27.8375 49.3 27.8375 49.3006 27.8375C49.3012 27.8375 49.3018 27.8375 49.3024 27.8375C49.303 27.8375 49.3036 27.8375 49.3042 27.8375C49.3049 27.8375 49.3055 27.8375 49.3061 27.8375C49.3067 27.8375 49.3073 27.8375 49.3079 27.8375C49.3085 27.8375 49.3091 27.8375 49.3098 27.8375C49.3104 27.8375 49.311 27.8375 49.3116 27.8375C49.3122 27.8375 49.3128 27.8375 49.3134 27.8375C49.314 27.8375 49.3146 27.8375 49.3153 27.8375C49.3159 27.8375 49.3165 27.8375 49.3171 27.8375C49.3177 27.8375 49.3183 27.8375 49.3189 27.8375C49.3195 27.8375 49.3201 27.8375 49.3208 27.8375C49.3214 27.8375 49.322 27.8375 49.3226 27.8375C49.3232 27.8375 49.3238 27.8375 49.3244 27.8375C49.325 27.8375 49.3256 27.8375 49.3262 27.8375C49.3269 27.8375 49.3275 27.8375 49.3281 27.8375C49.3287 27.8375 49.3293 27.8375 49.3299 27.8375C49.3305 27.8375 49.3311 27.8375 49.3317 27.8375C49.3323 27.8375 49.333 27.8375 49.3336 27.8375C49.3342 27.8375 49.3348 27.8375 49.3354 27.8375C49.336 27.8375 49.3366 27.8375 49.3372 27.8375C49.3378 27.8375 49.3384 27.8375 49.3391 27.8375C49.3397 27.8375 49.3403 27.8375 49.3409 27.8375C49.3415 27.8375 49.3421 27.8375 49.3427 27.8375C49.3433 27.8375 49.3439 27.8375 49.3445 27.8375C49.3452 27.8375 49.3458 27.8375 49.3464 27.8375C49.347 27.8375 49.3476 27.8375 49.3482 27.8375C49.3488 27.8375 49.3494 27.8375 49.35 27.8375C49.3506 27.8375 49.3512 27.8375 49.3519 27.8375C49.3525 27.8375 49.3531 27.8375 49.3537 27.8375C49.3543 27.8375 49.3549 27.8375 49.3555 27.8375C49.3561 27.8375 49.3567 27.8375 49.3573 27.8375C49.3579 27.8375 49.3586 27.8375 49.3592 27.8375C49.3598 27.8375 49.3604 27.8375 49.361 27.8375C49.3616 27.8375 49.3622 27.8375 49.3628 27.8375C49.3634 27.8375 49.364 27.8375 49.3646 27.8375C49.3653 27.8375 49.3659 27.8375 49.3665 27.8375C49.3671 27.8375 49.3677 27.8375 49.3683 27.8375C49.3689 27.8375 49.3695 27.8375 49.3701 27.8375C49.3707 27.8375 49.3713 27.8375 49.3719 27.8375C49.3725 27.8375 49.3732 27.8375 49.3738 27.8375C49.3744 27.8375 49.375 27.8375 49.3756 27.8375C49.3762 27.8375 49.3768 27.8375 49.3774 27.8375C49.378 27.8375 49.3786 27.8375 49.3792 27.8375C49.3798 27.8375 49.3805 27.8375 49.3811 27.8375C49.3817 27.8375 49.3823 27.8375 49.3829 27.8375C49.3835 27.8375 49.3841 27.8375 49.3847 27.8375C49.3853 27.8375 49.3859 27.8375 49.3865 27.8375C49.3871 27.8375 49.3877 27.8375 49.3883 27.8375C49.389 27.8375 49.3896 27.8375 49.3902 27.8375C49.3908 27.8375 49.3914 27.8375 49.392 27.8375C49.3926 27.8375 49.3932 27.8375 49.3938 27.8375C49.3944 27.8375 49.395 27.8375 49.3956 27.8375C49.3962 27.8375 49.3968 27.8375 49.3975 27.8375C49.3981 27.8375 49.3987 27.8375 49.3993 27.8375C49.3999 27.8375 49.4005 27.8375 49.4011 27.8375C49.4017 27.8375 49.4023 27.8375 49.4029 27.8375C49.4035 27.8375 49.4041 27.8375 49.4047 27.8375C49.4053 27.8375 49.4059 27.8375 49.4065 27.8375C49.4072 27.8375 49.4078 27.8375 49.4084 27.8375C49.409 27.8375 49.4096 27.8375 49.4102 27.8375C49.4108 27.8375 49.4114 27.8375 49.412 27.8375C49.4126 27.8375 49.4132 27.8375 49.4138 27.8375C49.4144 27.8375 49.415 27.8375 49.4156 27.8375C49.4162 27.8375 49.4169 27.8375 49.4175 27.8375C49.4181 27.8375 49.4187 27.8375 49.4193 27.8375C49.4199 27.8375 49.4205 27.8375 49.4211 27.8375C49.4217 27.8375 49.4223 27.8375 49.4229 27.8375C49.4235 27.8375 49.4241 27.8375 49.4247 27.8375C49.4253 27.8375 49.4259 27.8375 49.4265 27.8375C49.4271 27.8375 49.4277 27.8375 49.4284 27.8375C49.429 27.8375 49.4296 27.8375 49.4302 27.8375C49.4308 27.8375 49.4314 27.8375 49.432 27.8375C49.4326 27.8375 49.4332 27.8375 49.4338 27.8375C49.4344 27.8375 49.435 27.8375 49.4356 27.8375C49.4362 27.8375 49.4368 27.8375 49.4374 27.8375C49.438 27.8375 49.4386 27.8375 49.4392 27.8375C49.4398 27.8375 49.4404 27.8375 49.4411 27.8375C49.4417 27.8375 49.4423 27.8375 49.4429 27.8375C49.4435 27.8375 49.4441 27.8375 49.4447 27.8375C49.4453 27.8375 49.4459 27.8375 49.4465 27.8375C49.4471 27.8375 49.4477 27.8375 49.4483 27.8375C49.4489 27.8375 49.4495 27.8375 49.4501 27.8375C49.4507 27.8375 49.4513 27.8375 49.4519 27.8375C49.4525 27.8375 49.4531 27.8375 49.4537 27.8375C49.4543 27.8375 49.4549 27.8375 49.4556 27.8375C49.4562 27.8375 49.4568 27.8375 49.4574 27.8375C49.458 27.8375 49.4586 27.8375 49.4592 27.8375C49.4598 27.8375 49.4604 27.8375 49.461 27.8375C49.4616 27.8375 49.4622 27.8375 49.4628 27.8375C49.4634 27.8375 49.464 27.8375 49.4646 27.8375C49.4652 27.8375 49.4658 27.8375 49.4664 27.8375C49.467 27.8375 49.4676 27.8375 49.4682 27.8375C49.4688 27.8375 49.4694 27.8375 49.47 27.8375C49.4706 27.8375 49.4712 27.8375 49.4718 27.8375C49.4724 27.8375 49.473 27.8375 49.4736 27.8375C49.4742 27.8375 49.4749 27.8375 49.4755 27.8375C49.4761 27.8375 49.4767 27.8375 49.4773 27.8375C49.4779 27.8375 49.4785 27.8375 49.4791 27.8375C49.4797 27.8375 49.4803 27.8375 49.4809 27.8375C49.4815 27.8375 49.4821 27.8375 49.4827 27.8375C49.4833 27.8375 49.4839 27.8375 49.4845 27.8375C49.4851 27.8375 49.4857 27.8375 49.4863 27.8375C49.4869 27.8375 49.4875 27.8375 49.4881 27.8375C49.4887 27.8375 49.4893 27.8375 49.4899 27.8375C49.4905 27.8375 49.4911 27.8375 49.4917 27.8375C49.4923 27.8375 49.4929 27.8375 49.4935 27.8375C49.4941 27.8375 49.4947 27.8375 49.4953 27.8375C49.4959 27.8375 49.4965 27.8375 49.4971 27.8375C49.4977 27.8375 49.4983 27.8375 49.4989 27.8375C49.4995 27.8375 49.5001 27.8375 49.5007 27.8375C49.5013 27.8375 49.5019 27.8375 49.5025 27.8375C49.5031 27.8375 49.5037 27.8375 49.5043 27.8375C49.5049 27.8375 49.5055 27.8375 49.5061 27.8375C49.5067 27.8375 49.5073 27.8375 49.508 27.8375C49.5086 27.8375 49.5092 27.8375 49.5098 27.8375C49.5104 27.8375 49.511 27.8375 49.5116 27.8375C49.5122 27.8375 49.5128 27.8375 49.5134 27.8375C49.514 27.8375 49.5146 27.8375 49.5152 27.8375C49.5158 27.8375 49.5164 27.8375 49.517 27.8375C49.5176 27.8375 49.5182 27.8375 49.5188 27.8375C49.5194 27.8375 49.52 27.8375 49.5206 27.8375C49.5212 27.8375 49.5218 27.8375 49.5224 27.8375C49.523 27.8375 49.5236 27.8375 49.5242 27.8375C49.5248 27.8375 49.5254 27.8375 49.526 27.8375C49.5266 27.8375 49.5272 27.8375 49.5278 27.8375C49.5284 27.8375 49.529 27.8375 49.5296 27.8375C49.5302 27.8375 49.5308 27.8375 49.5314 27.8375C49.532 27.8375 49.5326 27.8375 49.5332 27.8375C49.5338 27.8375 49.5344 27.8375 49.535 27.8375C49.5356 27.8375 49.5362 27.8375 49.5368 27.8375C49.5374 27.8375 49.538 27.8375 49.5386 27.8375C49.5392 27.8375 49.5398 27.8375 49.5404 27.8375C49.541 27.8375 49.5416 27.8375 49.5422 27.8375C49.5427 27.8375 49.5433 27.8375 49.5439 27.8375C49.5445 27.8375 49.5451 27.8375 49.5457 27.8375C49.5463 27.8375 49.5469 27.8375 49.5475 27.8375C49.5481 27.8375 49.5487 27.8375 49.5493 27.8375C49.5499 27.8375 49.5505 27.8375 49.5511 27.8375C49.5517 27.8375 49.5523 27.8375 49.5529 27.8375C49.5535 27.8375 49.5541 27.8375 49.5547 27.8375C49.5553 27.8375 49.5559 27.8375 49.5565 27.8375C49.5571 27.8375 49.5577 27.8375 49.5583 27.8375C49.5589 27.8375 49.5595 27.8375 49.5601 27.8375C49.5607 27.8375 49.5613 27.8375 49.5619 27.8375C49.5625 27.8375 49.5631 27.8375 49.5637 27.8375C49.5643 27.8375 49.5649 27.8375 49.5655 27.8375C49.5661 27.8375 49.5667 27.8375 49.5673 27.8375C49.5679 27.8375 49.5685 27.8375 49.5691 27.8375C49.5697 27.8375 49.5703 27.8375 49.5709 27.8375C49.5715 27.8375 49.5721 27.8375 49.5727 27.8375C49.5733 27.8375 49.5739 27.8375 49.5745 27.8375C49.5751 27.8375 49.5756 27.8375 49.5762 27.8375C49.5768 27.8375 49.5774 27.8375 49.578 27.8375C49.5786 27.8375 49.5792 27.8375 49.5798 27.8375C49.5804 27.8375 49.581 27.8375 49.5816 27.8375C49.5822 27.8375 49.5828 27.8375 49.5834 27.8375C49.584 27.8375 49.5846 27.8375 49.5852 27.8375C49.5858 27.8375 49.5864 27.8375 49.587 27.8375C49.5876 27.8375 49.5882 27.8375 49.5888 27.8375C49.5894 27.8375 49.59 27.8375 49.5906 27.8375C49.5912 27.8375 49.5918 27.8375 49.5924 27.8375C49.593 27.8375 49.5936 27.8375 49.5942 27.8375C49.5947 27.8375 49.5953 27.8375 49.5959 27.8375C49.5965 27.8375 49.5971 27.8375 49.5977 27.8375C49.5983 27.8375 49.5989 27.8375 49.5995 27.8375C49.6001 27.8375 49.6007 27.8375 49.6013 27.8375C49.6019 27.8375 49.6025 27.8375 49.6031 27.8375C49.6037 27.8375 49.6043 27.8375 49.6049 27.8375C49.6055 27.8375 49.6061 27.8375 49.6067 27.8375C49.6073 27.8375 49.6079 27.8375 49.6085 27.8375C49.609 27.8375 49.6096 27.8375 49.6102 27.8375C49.6108 27.8375 49.6114 27.8375 49.612 27.8375C49.6126 27.8375 49.6132 27.8375 49.6138 27.8375C49.6144 27.8375 49.615 27.8375 49.6156 27.8375C49.6162 27.8375 49.6168 27.8375 49.6174 27.8375C49.618 27.8375 49.6186 27.8375 49.6192 27.8375C49.6198 27.8375 49.6204 27.8375 49.621 27.8375C49.6215 27.8375 49.6221 27.8375 49.6227 27.8375C49.6233 27.8375 49.6239 27.8375 49.6245 27.8375C49.6251 27.8375 49.6257 27.8375 49.6263 27.8375C49.6269 27.8375 49.6275 27.8375 49.6281 27.8375C49.6287 27.8375 49.6293 27.8375 49.6299 27.8375C49.6305 27.8375 49.6311 27.8375 49.6317 27.8375C49.6323 27.8375 49.6328 27.8375 49.6334 27.8375C49.634 27.8375 49.6346 27.8375 49.6352 27.8375C49.6358 27.8375 49.6364 27.8375 49.637 27.8375C49.6376 27.8375 49.6382 27.8375 49.6388 27.8375C49.6394 27.8375 49.64 27.8375 49.6406 27.8375C49.6412 27.8375 49.6418 27.8375 49.6424 27.8375C49.6429 27.8375 49.6435 27.8375 49.6441 27.8375C49.6447 27.8375 49.6453 27.8375 49.6459 27.8375C49.6465 27.8375 49.6471 27.8375 49.6477 27.8375C49.6483 27.8375 49.6489 27.8375 49.6495 27.8375C49.6501 27.8375 49.6507 27.8375 49.6513 27.8375C49.6518 27.8375 49.6524 27.8375 49.653 27.8375C49.6536 27.8375 49.6542 27.8375 49.6548 27.8375C49.6554 27.8375 49.656 27.8375 49.6566 27.8375C49.6572 27.8375 49.6578 27.8375 49.6584 27.8375C49.659 27.8375 49.6596 27.8375 49.6601 27.8375C49.6607 27.8375 49.6613 27.8375 49.6619 27.8375C49.6625 27.8375 49.6631 27.8375 49.6637 27.8375C49.6643 27.8375 49.6649 27.8375 49.6655 27.8375C49.6661 27.8375 49.6667 27.8375 49.6673 27.8375C49.6679 27.8375 49.6684 27.8375 49.669 27.8375C49.6696 27.8375 49.6702 27.8375 49.6708 27.8375C49.6714 27.8375 49.672 27.8375 49.6726 27.8375C49.6732 27.8375 49.6738 27.8375 49.6744 27.8375C49.675 27.8375 49.6756 27.8375 49.6761 27.8375C49.6767 27.8375 49.6773 27.8375 49.6779 27.8375C49.6785 27.8375 49.6791 27.8375 49.6797 27.8375C49.6803 27.8375 49.6809 27.8375 49.6815 27.8375C49.6821 27.8375 49.6827 27.8375 49.6832 27.8375C49.6838 27.8375 49.6844 27.8375 49.685 27.8375C49.6856 27.8375 49.6862 27.8375 49.6868 27.8375C49.6874 27.8375 49.688 27.8375 49.6886 27.8375C49.6892 27.8375 49.6897 27.8375 49.6903 27.8375C49.6909 27.8375 49.6915 27.8375 49.6921 27.8375C49.6927 27.8375 49.6933 27.8375 49.6939 27.8375C49.6945 27.8375 49.6951 27.8375 49.6957 27.8375C49.6963 27.8375 49.6968 27.8375 49.6974 27.8375C49.698 27.8375 49.6986 27.8375 49.6992 27.8375C49.6998 27.8375 49.7004 27.8375 49.701 27.8375C49.7016 27.8375 49.7022 27.8375 49.7027 27.8375C49.7033 27.8375 49.7039 27.8375 49.7045 27.8375C49.7051 27.8375 49.7057 27.8375 49.7063 27.8375C49.7069 27.8375 49.7075 27.8375 49.7081 27.8375C49.7087 27.8375 49.7092 27.8375 49.7098 27.8375C49.7104 27.8375 49.711 27.8375 49.7116 27.8375C49.7122 27.8375 49.7128 27.8375 49.7134 27.8375C49.714 27.8375 49.7146 27.8375 49.7151 27.8375C49.7157 27.8375 49.7163 27.8375 49.7169 27.8375C49.7175 27.8375 49.7181 27.8375 49.7187 27.8375C49.7193 27.8375 49.7199 27.8375 49.7204 27.8375C49.721 27.8375 49.7216 27.8375 49.7222 27.8375C49.7228 27.8375 49.7234 27.8375 49.724 27.8375C49.7246 27.8375 49.7252 27.8375 49.7258 27.8375C49.7263 27.8375 49.7269 27.8375 49.7275 27.8375C49.7281 27.8375 49.7287 27.8375 49.7293 27.8375C49.7299 27.8375 49.7305 27.8375 49.7311 27.8375C49.7316 27.8375 49.7322 27.8375 49.7328 27.8375C49.7334 27.8375 49.734 27.8375 49.7346 27.8375C49.7352 27.8375 49.7358 27.8375 49.7364 27.8375C49.7369 27.8375 49.7375 27.8375 49.7381 27.8375C49.7387 27.8375 49.7393 27.8375 49.7399 27.8375C49.7405 27.8375 49.7411 27.8375 49.7417 27.8375C49.7422 27.8375 49.7428 27.8375 49.7434 27.8375C49.744 27.8375 49.7446 27.8375 49.7452 27.8375C49.7458 27.8375 49.7464 27.8375 49.7469 27.8375C49.7475 27.8375 49.7481 27.8375 49.7487 27.8375C49.7493 27.8375 49.7499 27.8375 49.7505 27.8375C49.7511 27.8375 49.7517 27.8375 49.7522 27.8375C49.7528 27.8375 49.7534 27.8375 49.754 27.8375C49.7546 27.8375 49.7552 27.8375 49.7558 27.8375C49.7564 27.8375 49.7569 27.8375 49.7575 27.8375C49.7581 27.8375 49.7587 27.8375 49.7593 27.8375C49.7599 27.8375 49.7605 27.8375 49.7611 27.8375C49.7616 27.8375 49.7622 27.8375 49.7628 27.8375C49.7634 27.8375 49.764 27.8375 49.7646 27.8375C49.7652 27.8375 49.7658 27.8375 49.7663 27.8375C49.7669 27.8375 49.7675 27.8375 49.7681 27.8375C49.7687 27.8375 49.7693 27.8375 49.7699 27.8375C49.7704 27.8375 49.771 27.8375 49.7716 27.8375C49.7722 27.8375 49.7728 27.8375 49.7734 27.8375C49.774 27.8375 49.7746 27.8375 49.7751 27.8375C49.7757 27.8375 49.7763 27.8375 49.7769 27.8375C49.7775 27.8375 49.7781 27.8375 49.7787 27.8375C49.7792 27.8375 49.7798 27.8375 49.7804 27.8375C49.781 27.8375 49.7816 27.8375 49.7822 27.8375C49.7828 27.8375 49.7834 27.8375 49.7839 27.8375C49.7845 27.8375 49.7851 27.8375 49.7857 27.8375C49.7863 27.8375 49.7869 27.8375 49.7875 27.8375V25.8375ZM48.85 25.8375C48.6058 25.8375 48.3608 25.8172 48.1144 25.7761L47.7856 27.7489C48.1391 27.8078 48.4941 27.8375 48.85 27.8375V25.8375ZM46.9625 26.6045C46.7576 27.8853 46.5923 29.3117 46.4657 30.8821L48.4592 31.0429C48.5826 29.5133 48.7423 28.1397 48.9374 26.9205L46.9625 26.6045ZM46.4646 30.8971C46.3629 32.4486 46.3125 34.196 46.3125 36.1375H48.3125C48.3125 34.229 48.362 32.5264 48.4603 31.0279L46.4646 30.8971ZM46.3125 36.1375V48.2875H48.3125V36.1375H46.3125ZM47.3125 49.2875H52.3375V47.2875H47.3125V49.2875ZM51.3919 47.962L50.6044 50.2495L52.4955 50.9005L53.283 48.613L51.3919 47.962ZM51.55 49.575H47.3125V51.575H51.55V49.575ZM46.3125 50.575V59.8H48.3125V50.575H46.3125ZM46.3125 59.8C46.3125 61.8927 46.2875 63.7191 46.238 65.2808L48.2369 65.3442C48.2874 63.7559 48.3125 61.9073 48.3125 59.8H46.3125ZM46.238 65.2803C46.1892 66.792 46.0555 68.1285 45.8414 69.2943L47.8085 69.6557C48.0444 68.3715 48.1857 66.933 48.2369 65.3447L46.238 65.2803ZM45.8421 69.2907C45.6302 70.4205 45.3156 71.4277 44.9045 72.3184L46.7204 73.1566C47.2093 72.0973 47.5697 70.9295 47.8078 69.6593L45.8421 69.2907ZM44.9087 72.3094C44.5031 73.1657 43.9314 74.0283 43.1811 74.8958L44.6938 76.2042C45.5435 75.2217 46.2218 74.2093 46.7162 73.1656L44.9087 72.3094ZM43.1841 74.8923C41.9352 76.3229 40.165 77.5303 37.8221 78.4867L38.5778 80.3383C41.1349 79.2947 43.1897 77.9271 44.6908 76.2077L43.1841 74.8923ZM37.8221 78.4867C35.5239 79.4247 32.685 79.9125 29.275 79.9125V81.9125C32.8649 81.9125 35.976 81.4003 38.5778 80.3383L37.8221 78.4867ZM29.275 79.9125C27.2193 79.9125 25.2688 79.6259 23.419 79.0567L22.8309 80.9683C24.8812 81.5991 27.0306 81.9125 29.275 81.9125V79.9125ZM23.419 79.0567C21.5625 78.4855 19.9521 77.6945 18.5764 76.6919L17.3985 78.3081C18.9728 79.4555 20.7874 80.3395 22.8309 80.9683L23.419 79.0567ZM18.5764 76.6919C17.2073 75.694 16.1281 74.5083 15.3262 73.1336L13.5987 74.1414C14.5468 75.7667 15.8176 77.156 17.3985 78.3081L18.5764 76.6919ZM15.3262 73.1336C14.5451 71.7945 14.15 70.3073 14.15 68.65H12.15C12.15 70.6427 12.6298 72.4805 13.5987 74.1414L15.3262 73.1336ZM14.15 68.65C14.15 67.4051 14.3458 66.3202 14.7174 65.3802L12.8575 64.6448C12.3791 65.8548 12.15 67.1949 12.15 68.65H14.15ZM14.7099 65.3986C15.1233 64.411 15.6463 63.5504 16.275 62.8095L14.7499 61.5155C13.9786 62.4246 13.3516 63.464 12.865 64.6264L14.7099 65.3986ZM16.2844 62.7982C16.9349 62.0083 17.6366 61.3428 18.3881 60.7962L17.2118 59.1788C16.3133 59.8322 15.49 60.6167 14.7405 61.5268L16.2844 62.7982ZM18.3766 60.8045C19.192 60.2289 19.9738 59.7561 20.7222 59.3819L19.8277 57.5931C18.9761 58.0189 18.1079 58.5461 17.2233 59.1705L18.3766 60.8045ZM20.7222 59.3819C21.4941 58.9959 22.1782 58.7023 22.7771 58.495L22.1228 56.605C21.4217 56.8477 20.6558 57.1791 19.8277 57.5931L20.7222 59.3819ZM22.7771 58.495C23.4209 58.2721 23.8668 58.1368 24.1373 58.0744L23.6876 56.1256C23.3081 56.2132 22.779 56.3779 22.1228 56.605L22.7771 58.495ZM23.0137 57.5384L23.7637 59.0759L25.5612 58.1991L24.8112 56.6616L23.0137 57.5384ZM24.1999 57.7509C23.569 58.0801 22.8767 58.5214 22.1259 59.0651L23.299 60.6849C23.9982 60.1786 24.6059 59.7949 25.125 59.5241L24.1999 57.7509ZM22.1312 59.0613C21.3406 59.626 20.6107 60.347 19.9369 61.2094L21.513 62.4406C22.0892 61.703 22.6843 61.124 23.2937 60.6887L22.1312 59.0613ZM19.9465 61.1972C19.2428 62.0699 18.6694 63.1173 18.2145 64.3216L20.0854 65.0284C20.4805 63.9827 20.9571 63.1301 21.5034 62.4528L19.9465 61.1972ZM18.2145 64.3216C17.7371 65.5853 17.5125 67.0352 17.5125 68.65H19.5125C19.5125 67.2148 19.7128 66.0147 20.0854 65.0284L18.2145 64.3216ZM17.5125 68.65C17.5125 70.3888 17.807 71.9866 18.4165 73.4271L20.2584 72.6479C19.7679 71.4884 19.5125 70.1612 19.5125 68.65H17.5125ZM18.4192 73.4336C19.022 74.8309 19.8641 76.0355 20.9467 77.0348L22.3032 75.5652C21.4358 74.7645 20.7529 73.7941 20.2557 72.6414L18.4192 73.4336ZM20.9664 77.0526C22.0694 78.0176 23.3574 78.7544 24.818 79.2683L25.4819 77.3817C24.2425 76.9456 23.1806 76.3324 22.2835 75.5474L20.9664 77.0526ZM24.8389 79.2754C26.3259 79.762 27.9322 80 29.65 80V78C28.1177 78 26.7241 77.788 25.461 77.3746L24.8389 79.2754ZM29.65 80C31.5662 80 33.3374 79.7375 34.9537 79.1987L34.3212 77.3013C32.9375 77.7625 31.3837 78 29.65 78V80ZM34.949 79.2002C36.6361 78.6471 38.0833 77.7154 39.2753 76.4125L37.7996 75.0625C36.8416 76.1096 35.6888 76.8529 34.3259 77.2998L34.949 79.2002ZM39.2753 76.4125C40.4742 75.102 41.374 73.3972 42.0057 71.3441L40.0942 70.7559C39.5259 72.6028 38.7507 74.023 37.7996 75.0625L39.2753 76.4125ZM42.0057 71.3441C42.6445 69.268 42.95 66.7363 42.95 63.775H40.95C40.95 66.6137 40.6554 68.932 40.0942 70.7559L42.0057 71.3441ZM42.95 63.775V50.575H40.95V63.775H42.95ZM41.95 49.575H34.675V51.575H41.95V49.575ZM35.6252 50.8865L36.3752 48.599L34.4747 47.9759L33.7247 50.2634L35.6252 50.8865ZM35.425 49.2875H41.95V47.2875H35.425V49.2875ZM54.25 17.1C52.8551 17.1 51.5906 17.6195 50.4818 18.5825L51.7931 20.0925C52.5843 19.4055 53.3948 19.1 54.25 19.1V17.1ZM50.4933 18.5726C49.3339 19.549 48.4717 21.1324 47.8227 23.1573L49.7272 23.7677C50.3282 21.8926 51.041 20.726 51.7816 20.1024L50.4933 18.5726ZM48.6157 24.4497C49.408 24.5775 50.1768 24.6801 50.9221 24.7572L51.1279 22.7678C50.4231 22.6949 49.6919 22.5975 48.9342 22.4753L48.6157 24.4497ZM50.9221 24.7572C51.6772 24.8353 52.3993 24.875 53.0875 24.875V22.875C52.4756 22.875 51.8227 22.8397 51.1279 22.7678L50.9221 24.7572ZM53.0875 24.875C53.8435 24.875 54.5424 24.7777 55.1582 24.5508L54.4667 22.6742C54.1325 22.7973 53.6815 22.875 53.0875 22.875V24.875ZM55.1838 24.541C55.777 24.3037 56.3018 23.9874 56.7196 23.5696L55.3053 22.1554C55.1232 22.3376 54.8479 22.5213 54.4411 22.684L55.1838 24.541ZM56.7196 23.5696C57.1104 23.1788 57.4131 22.7284 57.6159 22.2214L55.759 21.4786C55.6618 21.7216 55.5145 21.9462 55.3053 22.1554L56.7196 23.5696ZM57.6159 22.2214C57.8095 21.7374 57.9125 21.2367 57.9125 20.725H55.9125C55.9125 20.9633 55.8654 21.2126 55.759 21.4786L57.6159 22.2214ZM57.9125 20.725C57.9125 19.7423 57.5623 18.8732 56.8696 18.1804L55.4553 19.5946C55.7626 19.9018 55.9125 20.2577 55.9125 20.725H57.9125ZM56.8866 18.1978C56.1838 17.4599 55.2776 17.1 54.25 17.1V19.1C54.7723 19.1 55.1411 19.2651 55.4383 19.5772L56.8866 18.1978Z" fill="#2E2E2E"/>
</g>
<defs>
<filter id="filter0_d" x="0" y="5.19995" width="68" height="68" filterUnits="userSpaceOnUse" color-interpolation-filters="sRGB">
<feFlood flood-opacity="0" result="BackgroundImageFix"/>
<feColorMatrix in="SourceAlpha" type="matrix" values="0 0 0 0 0 0 0 0 0 0 0 0 0 0 0 0 0 0 127 0"/>
<feOffset dy="2"/>
<feGaussianBlur stdDeviation="2"/>
<feColorMatrix type="matrix" values="0 0 0 0 0.180392 0 0 0 0 0.180392 0 0 0 0 0.180392 0 0 0 0.25 0"/>
<feBlend mode="normal" in2="BackgroundImageFix" result="effect1_dropShadow"/>
<feBlend mode="normal" in="SourceGraphic" in2="effect1_dropShadow" result="shape"/>
</filter>
<filter id="filter1_d" x="3.16248" y="13.0375" width="61.075" height="74.875" filterUnits="userSpaceOnUse" color-interpolation-filters="sRGB">
<feFlood flood-opacity="0" result="BackgroundImageFix"/>
<feColorMatrix in="SourceAlpha" type="matrix" values="0 0 0 0 0 0 0 0 0 0 0 0 0 0 0 0 0 0 127 0"/>
<feOffset dy="2"/>
<feGaussianBlur stdDeviation="2"/>
<feColorMatrix type="matrix" values="0 0 0 0 0.180392 0 0 0 0 0.180392 0 0 0 0 0.180392 0 0 0 0.4 0"/>
<feBlend mode="normal" in2="BackgroundImageFix" result="effect1_dropShadow"/>
<feBlend mode="normal" in="SourceGraphic" in2="effect1_dropShadow" result="shape"/>
</filter>
</defs>
</svg>
