<svg width="108" height="108" viewBox="0 0 108 108" fill="none" xmlns="http://www.w3.org/2000/svg">
<path d="M0.318115 53.8827C0.318115 62.9054 8.23343 71.328 20.712 76.0758C18.2201 90.0393 20.2657 101.294 27.0972 105.68C34.119 110.187 44.5803 107.067 54.5095 97.4058C64.1882 106.677 73.9698 110.325 80.7955 105.927C87.811 101.407 89.9443 89.3889 87.3836 74.9892C100.381 70.2062 107.651 63.0242 107.651 53.8827C107.651 45.0694 99.7217 37.4451 87.4111 32.7278C90.1679 17.7332 87.8321 6.75142 80.7175 2.18489C73.8585 -2.21776 63.9629 1.61953 54.1421 11.1329C43.9247 1.0354 34.1271 -2.0473 27.02 2.5319C20.1674 6.94723 18.2121 18.407 20.712 32.6287C8.65445 37.3079 0.318115 45.1051 0.318115 53.8827Z" fill="#212121"/>
<path d="M84.804 37.4121C83.7895 37.0247 82.7663 36.6658 81.7354 36.3358C81.9064 35.5627 82.0645 34.786 82.2096 34.0063C84.5324 21.4558 83.0137 11.3451 77.8273 8.01682C72.8549 4.82472 64.7223 8.153 56.5088 16.1088C55.6994 16.8946 54.908 17.703 54.1354 18.5332C53.618 17.9811 53.0914 17.4398 52.5559 16.9095C43.9479 8.40187 35.3197 4.81721 30.1388 8.15535C25.171 11.3564 23.6996 20.8618 25.7907 32.7559C25.9988 33.9337 26.2337 35.1055 26.4952 36.2701C25.2744 36.6561 24.0953 37.0674 22.9673 37.5051C12.8756 41.4212 6.43042 47.5594 6.43042 53.9258C6.43042 60.5015 13.3489 67.0971 23.8607 71.0959C24.7131 71.4186 25.5726 71.7177 26.4383 71.9927C26.157 73.2474 25.9074 74.5105 25.6895 75.7807C23.6958 87.4682 25.2529 96.7482 30.2076 99.9295C35.3252 103.214 43.9142 99.838 52.2779 91.7004C52.939 91.0571 53.6026 90.3748 54.267 89.6597C55.1039 90.5584 55.9631 91.4311 56.8437 92.2766C64.9451 100.036 72.946 103.17 77.8965 99.9798C83.0095 96.6853 84.6707 86.716 82.5133 74.5866C82.3488 73.6602 82.1569 72.714 81.9417 71.7505C82.545 71.5523 83.1369 71.3476 83.7144 71.1344C94.6422 67.1046 101.752 60.5894 101.752 53.9258C101.752 47.5364 95.0991 41.3569 84.804 37.4121V37.4121Z" fill="#FC4B49"/>
<path d="M82.4334 66.8322C81.9124 67.0242 81.3775 67.2097 80.8325 67.3896C79.626 63.1386 77.9976 58.6181 76.0056 53.9483C77.9069 49.3888 79.472 44.9265 80.6447 40.7028C81.6197 41.0174 82.5663 41.3484 83.4784 41.6982C92.2994 45.0777 97.6797 50.0753 97.6797 53.9257C97.6797 58.0274 91.8687 63.3522 82.4338 66.8322H82.4334ZM78.5186 75.467C79.4724 80.8304 79.6087 85.6796 78.9767 89.4704C78.4089 92.8766 77.2674 95.1474 75.8558 96.057C72.8518 97.9925 66.4273 95.4766 59.4996 88.8407C58.7052 88.08 57.905 87.2676 57.1026 86.4083C59.7886 83.1383 62.4728 79.3367 65.0926 75.1153C69.7009 74.6603 74.0545 73.916 78.0027 72.9004C78.1967 73.7738 78.3697 74.6298 78.5186 75.467V75.467ZM38.9273 95.7226C35.9925 96.8763 33.655 96.9092 32.2422 96.0025C29.2352 94.0726 27.9856 86.6206 29.6904 76.6259C29.8931 75.4447 30.1252 74.2701 30.3864 73.1032C34.2907 74.0644 38.6126 74.7561 43.232 75.1731C45.869 79.3038 48.6309 83.1007 51.4143 86.4257C50.8227 87.0627 50.2172 87.6833 49.5982 88.2871C45.8998 91.8858 42.1938 94.4384 38.9278 95.7226H38.9273ZM25.1778 66.8068C20.5297 65.0384 16.6913 62.7404 14.0601 60.2329C11.6961 57.979 10.5022 55.7415 10.5022 53.9257C10.5022 50.0626 15.6771 45.1345 24.3079 41.7851C25.3912 41.3666 26.4852 40.9834 27.5887 40.6361C28.7817 44.9547 30.3463 49.47 32.2346 54.0361C30.3219 58.6702 28.7348 63.2574 27.5309 67.6267C26.7406 67.3749 25.956 67.1015 25.1778 66.8068V66.8068ZM29.787 31.8853C27.9953 21.6943 29.185 14.0071 32.1789 12.0781C35.3681 10.0233 42.4195 12.9534 49.8517 20.2988C50.3267 20.7683 50.8039 21.26 51.2818 21.7685C48.5128 25.0785 45.7762 28.8467 43.1619 32.9535C38.6789 33.4161 34.3873 34.1589 30.4421 35.1539C30.1991 34.0705 29.9806 32.9805 29.787 31.8848V31.8853ZM70.9041 43.1863C69.9722 41.3946 69.0058 39.6255 68.0055 37.8802C71.0471 38.3075 73.9608 38.8757 76.697 39.5711C75.8757 42.5017 74.8518 45.5661 73.6461 48.7074C72.7652 46.8469 71.851 45.0062 70.9041 43.1863V43.1863ZM54.1365 25.0076C56.0146 27.2723 57.8957 29.8014 59.746 32.545C55.9927 32.3476 52.2332 32.3467 48.4799 32.5422C50.3318 29.8239 52.2289 27.2986 54.1365 25.0076V25.0076ZM37.2614 43.2173C36.3263 45.0227 35.4292 46.8522 34.5708 48.7042C33.385 45.5736 32.3704 42.4956 31.5419 39.5232C34.2616 38.8456 37.1619 38.292 40.1836 37.8718C39.1721 39.6279 38.1978 41.4102 37.2614 43.2173V43.2173ZM40.2705 70.3032C37.1488 69.9153 34.2046 69.3899 31.4858 68.7311C32.3274 65.7062 33.3643 62.562 34.5755 59.3642C35.4375 61.2176 36.3385 63.0482 37.2779 64.8544C38.2364 66.6969 39.2342 68.5137 40.2705 70.3032V70.3032ZM54.2492 83.1641C52.3192 80.8459 50.3942 78.282 48.514 75.5243C50.339 75.6041 52.1998 75.6445 54.091 75.6445C56.034 75.6445 57.9548 75.5961 59.8451 75.5022C57.9889 78.3102 56.1146 80.8778 54.2492 83.1641ZM73.685 59.2013C74.959 62.4338 76.033 65.5611 76.886 68.5348C74.122 69.2368 71.1382 69.8022 67.9941 70.222C69.0016 68.4441 69.9773 66.644 70.9205 64.8229C71.8794 62.9721 72.8011 61.0978 73.685 59.2013V59.2013ZM67.393 62.5587C65.949 65.3507 64.4239 68.0897 62.82 70.7714C59.9919 70.9963 57.0693 71.1123 54.091 71.1123C51.1249 71.1123 48.2394 71.0094 45.4606 70.8089C43.8151 68.1335 42.2612 65.3897 40.8021 62.5836C39.3498 59.7922 37.9932 56.9406 36.7354 54.0347C37.99 51.1279 39.3425 48.2747 40.7898 45.4811V45.482C42.2367 42.6878 43.7785 39.9558 45.4117 37.2919C48.2466 37.0533 51.1532 36.9284 54.0914 36.9284C57.0427 36.9284 59.9531 37.0543 62.7871 37.2947C64.4038 39.9545 65.9357 42.677 67.3799 45.4571C68.8322 48.2445 70.2027 51.0837 71.4892 53.9703C70.2159 56.8863 68.8498 59.7509 67.3934 62.5587H67.393ZM75.7934 11.9433C78.9852 13.9925 80.2267 22.2554 78.2212 33.0916C78.0897 33.7975 77.9468 34.5007 77.7926 35.2009C73.8381 34.1852 69.5436 33.4292 65.0474 32.9596C62.4281 28.8082 59.7143 25.0334 56.99 21.7662C57.7039 21.0001 58.4347 20.2539 59.1819 19.5282C66.2194 12.7111 72.7965 10.0195 75.7934 11.9433V11.9433Z" fill="#212121"/>
<path d="M53.5378 61.4475H51.6828V56.8821C51.6828 55.3603 51.2654 54.2536 50.4769 53.5618C49.874 53.0546 49.132 52.824 48.2045 52.824C47.2305 52.824 46.3494 53.1468 45.7001 53.7924C45.0508 54.438 44.6798 55.3142 44.6798 56.3748C44.6798 57.5277 45.0508 58.45 45.8856 59.0956C46.5349 59.6029 47.3233 59.8796 48.2508 59.8796C48.761 59.8796 49.2248 59.7873 49.6422 59.6029C50.0595 59.4184 50.4769 59.1417 50.8943 58.7267V60.6635C50.0595 61.3091 49.0856 61.6319 47.9262 61.6319C46.4421 61.6319 45.2363 61.1708 44.216 60.2024C43.2421 59.2801 42.7319 58.035 42.7319 56.5132C42.7319 54.8992 43.2421 53.6079 44.3088 52.5934C45.3754 51.5328 46.674 51.0716 48.2045 51.0716C49.6885 51.0716 50.9407 51.5328 51.8683 52.409C52.9813 53.4696 53.5378 54.9914 53.5378 56.9743V61.4475V61.4475ZM65.2713 51.0716C65.2713 52.2245 64.9003 53.239 64.2046 54.1613C63.8336 54.6686 62.9988 55.4064 61.8394 56.3287L57.6654 59.6029H65.2249V61.4475H57.0625C56.3669 61.4475 55.8567 61.3091 55.5321 60.9863C55.2074 60.6635 55.0219 60.2946 55.0219 59.8796C55.0219 59.5568 55.1147 59.2801 55.2538 59.0495C55.3466 58.865 55.6712 58.5883 56.2277 58.1733L61.2365 54.2997C61.8858 53.7924 62.3495 53.3774 62.6278 53.0085C63.0916 52.409 63.2771 51.7634 63.2771 51.0716C63.2771 50.2877 63.0452 49.6421 62.5814 49.1348C62.0713 48.5353 61.3292 48.2586 60.3553 48.2586C59.4278 48.2586 58.6857 48.5353 58.1292 49.1348C57.5727 49.6882 57.2944 50.426 57.2944 51.2561C57.2944 52.1323 57.619 52.824 58.2683 53.3774C58.8249 53.8385 59.4278 54.1152 60.1698 54.2074L58.4075 55.5909C57.4335 55.222 56.6451 54.6686 56.135 53.8846C55.5784 53.1007 55.3002 52.2245 55.3002 51.2561C55.3002 49.7804 55.8103 48.5814 56.877 47.6591C57.8509 46.8291 59.0567 46.3679 60.4481 46.3679C61.8394 46.3679 62.9524 46.8291 63.88 47.7052C64.8539 48.6275 65.2713 49.7343 65.2713 51.0716Z" fill="white"/>
</svg>
